<?xml version="1.0" standalone="no"?>
<!DOCTYPE svg PUBLIC "-//W3C//DTD SVG 1.1//EN" "http://www.w3.org/Graphics/SVG/1.1/DTD/svg11.dtd" >
<svg xmlns="http://www.w3.org/2000/svg">
<metadata></metadata>
<defs>
<font id="helveticaotflight" horiz-adv-x="1089" >
<font-face units-per-em="2048" ascent="1638" descent="-410" />
<missing-glyph horiz-adv-x="544" />
<glyph horiz-adv-x="0" />
<glyph horiz-adv-x="682" />
<glyph unicode="&#xd;" horiz-adv-x="681" />
<glyph unicode=" "  horiz-adv-x="544" />
<glyph unicode="&#x09;" horiz-adv-x="544" />
<glyph unicode="&#xa0;" horiz-adv-x="544" />
<glyph unicode="!" horiz-adv-x="638" d="M252 0v182h135v-182h-135zM252 938v535h135v-535l-27 -578h-79z" />
<glyph unicode="&#x22;" horiz-adv-x="550" d="M100 881v553h86v-553h-86zM365 881v553h86v-553h-86z" />
<glyph unicode="#" horiz-adv-x="1574" d="M129 494l31 90h336l100 282h-360l28 90h365l176 498h110l-174 -498h271l176 498h110l-174 -498h322l-31 -90h-323l-101 -282h348l-30 -90h-351l-174 -494h-112l176 494h-270l-179 -494h-110l174 494h-334zM610 584h269l100 282h-270z" />
<glyph unicode="$" d="M59 410v10h125q0 -150 84 -244q76 -86 236 -104v592l-92 26q-168 49 -243 132t-75 220q0 178 107 279q121 111 303 111v122h94v-122q170 0 281 -105q104 -98 104 -260h-121q0 111 -72.5 181.5t-191.5 70.5v-547l51 -12q203 -53 293 -147.5t90 -250.5q0 -178 -114 -286 q-125 -115 -320 -115v-160h-94v160q-106 0 -193 37q-78 31 -141 92q-111 117 -111 320zM217 1055q0 -94 52.5 -149.5t179.5 -92.5l55 -14v520q-127 0 -213 -76q-74 -68 -74 -188zM598 72q137 0 227 80q80 74 80 196q0 111 -59.5 177.5t-192.5 101.5l-55 14v-569z" />
<glyph unicode="%" horiz-adv-x="1658" d="M76 1053q0 143 96 239q98 98 241.5 98.5t242 -98t98.5 -240t-101 -241.5q-98 -98 -239.5 -98t-239.5 98q-98 103 -98 242zM195 1051q0 -92 63.5 -156t155.5 -64q90 0 154.5 63.5t64.5 156.5q0 94 -63.5 157.5t-155.5 63.5t-155.5 -63.5t-63.5 -157.5zM317 -39l920 1471 h104l-919 -1471h-105zM905 340q0 143 99 240q100 98 241 98q143 0 240 -98q98 -96 98 -240q0 -143 -98.5 -241.5t-239.5 -98.5q-139 0 -239 98q-101 101 -101 242zM1024 340q0 -92 64.5 -156.5t156.5 -64.5q90 0 154 63q66 66 65.5 158t-64 155.5t-155.5 63.5t-158 -65 q-63 -64 -63 -154z" />
<glyph unicode="&#x26;" horiz-adv-x="1351" d="M111 385q0 309 348 467q-78 84 -121 170q-37 80 -37 158q0 123 90 206q88 86 227 87q143 0 229.5 -80t86.5 -215q0 -109 -65.5 -192t-217.5 -165l365 -430q49 115 49 268h127q0 -104 -25 -202q-23 -90 -67 -170l243 -287h-167l-148 176q-166 -215 -469 -215 q-199 0 -323.5 119t-124.5 305zM250 399q0 -143 86 -231t225 -88q244 0 385 192l-416 494q-281 -137 -280 -367zM432 1178q1 -107 148 -269q119 61 173 124t54 143q0 82 -51 130t-139.5 48t-136.5 -45t-48 -131z" />
<glyph unicode="'" horiz-adv-x="284" d="M100 881v553h86v-553h-86z" />
<glyph unicode="(" horiz-adv-x="647" d="M193 528q0 547 325 945h98q-297 -412 -297 -945q0 -535 297 -942h-98q-326 401 -325 942z" />
<glyph unicode=")" horiz-adv-x="647" d="M31 -414q295 414 295 942q0 539 -295 945h98q326 -393 326 -945q0 -543 -326 -942h-98z" />
<glyph unicode="*" horiz-adv-x="1024" d="M137 1159l35 115l291 -107v306h94v-306l289 103l41 -107l-303 -84l204 -250l-96 -69l-182 266l-180 -264l-94 67l200 250z" />
<glyph unicode="+" horiz-adv-x="1705" d="M254 569v82h559v570h80v-570h559v-82h-559v-569h-80v569h-559z" />
<glyph unicode="," horiz-adv-x="544" d="M205 0v182h135v-243q0 -90 -30.5 -141.5t-104.5 -80.5v78q63 49 63 135v70h-63z" />
<glyph unicode="-" horiz-adv-x="669" d="M80 473v129h495v-129h-495z" />
<glyph unicode="." horiz-adv-x="544" d="M205 0v182h135v-182h-135z" />
<glyph unicode="/" horiz-adv-x="598" d="M-25 -170l549 1681h99l-549 -1681h-99z" />
<glyph unicode="0" d="M76 696.5q0 358.5 119.5 547t349.5 188.5q227 0 349 -189.5t122 -548.5q0 -356 -121 -544.5t-350 -188.5q-227 0 -348 188.5t-121 547zM213 696q0 -623 332 -622q330 0 329 622q0 621 -329 621q-168 0 -250 -154q-82 -160 -82 -467z" />
<glyph unicode="1" d="M190 1061v88h9q180 0 266 68q96 74 96 215h119v-1432h-133v1143q-49 -43 -129 -64q-100 -18 -207 -18h-21z" />
<glyph unicode="2" d="M68 43q0 154 81.5 274.5t270.5 237.5l133 80q166 96 225 156q86 98 86 223q0 141 -79.5 221t-221.5 80q-156 0 -241 -92q-86 -96 -86 -267h-134q0 223 125 349.5t340 126.5q199 0 316.5 -112t117.5 -302q0 -168 -114 -295q-63 -72 -277 -191l-100 -57 q-158 -92 -227.5 -174t-79.5 -186h790v-115h-923v20z" />
<glyph unicode="3" d="M72 406v4h139q0 -160 84 -249t233 -89q158 0 244 83t86 236q0 152 -88 223.5t-272 71.5l-39 -2h-23v107l27 -3h24q332 0 332 273q0 117 -74.5 188.5t-199.5 71.5q-143 0 -219 -82q-82 -88 -82 -233h-127q0 199 121 313q113 113 309 113q186 0 295.5 -99.5t109.5 -271.5 q0 -213 -198 -313q117 -35 180 -128.5t63 -232.5q0 -197 -123.5 -311.5t-336.5 -114.5q-215 0 -340 118t-125 327z" />
<glyph unicode="4" d="M76 354v115l606 922h143v-924h191v-113h-191v-354h-133v354h-616zM199 467h493v754z" />
<glyph unicode="5" d="M78 369h133q0 -127 92 -215q90 -78 234 -78q152 0 237.5 93t85.5 261q0 172 -88 271.5t-244 99.5q-94 0 -172 -37q-74 -35 -120 -105h-113l108 732h701v-113h-604l-70 -461q104 92 293 92q205 0 323 -129q123 -129 123 -344q0 -221 -124.5 -348t-340.5 -127 q-199 0 -323 109q-131 119 -131 299z" />
<glyph unicode="6" d="M82 627q0 393 135 600t387 207q166 0 272.5 -98.5t122.5 -266.5h-125q-16 121 -87.5 186.5t-190.5 65.5q-176 0 -274 -162q-105 -172 -105 -475q109 221 369 221q197 0 313.5 -129t116.5 -348q0 -215 -120 -341t-323 -126q-240 0 -365.5 170t-125.5 496zM250 442 q0 -170 85 -270t228 -100q154 0 234 90t80 260q0 178 -81 276.5t-229 98.5q-141 0 -229 -100.5t-88 -254.5z" />
<glyph unicode="7" d="M121 1266v125h891v-125q-451 -545 -561 -1266h-144q59 362 201 676q139 315 362 590h-749z" />
<glyph unicode="8" d="M82 391q0 129 65.5 224.5t182.5 142.5q-195 100 -195 305q0 168 111.5 268.5t298.5 100.5q188 0 298.5 -99.5t110.5 -269.5q0 -199 -194 -305q117 -45 182.5 -141.5t65.5 -225.5q0 -199 -124 -314.5t-339 -115.5q-211 0 -338 115q-125 113 -125 315zM221 387 q0 -137 90 -225t234 -88q145 0 234 89t89 234q0 137 -87 219t-236 82q-154 0 -239 -82t-85 -229zM270 1059q0 -117 72 -185q78 -68 203 -67q129 0 202.5 67.5t73.5 184.5q0 121 -74.5 192.5t-201.5 71.5t-201 -70.5t-74 -193.5z" />
<glyph unicode="9" d="M70 963q0 217 118.5 343t323.5 126q240 0 366 -170t126 -496q0 -393 -134.5 -599t-388.5 -206q-170 0 -273.5 94.5t-121.5 266.5h125q37 -250 281 -250q176 0 272 157q104 184 104 478q-113 -221 -368 -222q-193 0 -314 129q-117 129 -116 349zM209 969q0 -180 81 -276.5 t228 -96.5q137 0 227 98q90 102 91 254q0 172 -84 271.5t-230 99.5q-152 0 -232.5 -89t-80.5 -261z" />
<glyph unicode=":" horiz-adv-x="591" d="M229 0v182h136v-182h-136zM229 860v182h136v-182h-136z" />
<glyph unicode=";" horiz-adv-x="591" d="M227 0v182h138v-243q0 -92 -32 -142.5t-106 -79.5v78q63 49 64 135v70h-64zM227 860v182h138v-182h-138z" />
<glyph unicode="&#x3c;" horiz-adv-x="1705" d="M264 580v61l1178 483v-90l-1045 -424l1045 -424v-88z" />
<glyph unicode="=" horiz-adv-x="1705" d="M254 387v82h1198v-82h-1198zM254 752v79h1198v-79h-1198z" />
<glyph unicode="&#x3e;" horiz-adv-x="1705" d="M264 98v88l1045 424l-1045 424v90l1178 -483v-61z" />
<glyph unicode="?" horiz-adv-x="1005" d="M55 1057q0 215 123 338q121 117 336 116q193 0 308.5 -101t115.5 -273q0 -178 -150 -316l-53 -49q-193 -174 -192 -303v-109h-121v125q0 84 27 144q29 66 114 151l70 70q164 158 164 276q0 125 -76 197t-211 72q-154 0 -238 -84q-84 -88 -84 -254h-133zM416 0v182h135 v-182h-135z" />
<glyph unicode="@" horiz-adv-x="2048" d="M121 522q0 326 198 572q293 356 795 356q334 0 553 -168q260 -197 260 -504q0 -344 -244 -540q-70 -55 -147 -82q-86 -29 -158 -29q-193 0 -192 145l4 33v6q-100 -184 -291 -184q-154 0 -233.5 84t-79.5 242q0 229 133 387q135 158 328 157q195 0 256 -170l61 129h80 l-137 -553l-17 -65l-4 -43q0 -41 31 -68q27 -25 86 -24q92 0 203 76q100 74 161.5 208t61.5 281q0 272 -201 438q-199 168 -524 168q-338 0 -569 -192q-309 -260 -310 -672q0 -328 221 -520q223 -195 592 -195q338 0 623 193l29 -45q-289 -219 -648 -219q-188 0 -343.5 47 t-276.5 137q-301 223 -301 614zM690 446q0 -115 57.5 -180t159.5 -65q111 0 195 71.5t117 194.5l63 254q-23 100 -82 151q-63 51 -151 52q-152 0 -256 -140q-102 -139 -103 -338z" />
<glyph unicode="A" horiz-adv-x="1261" d="M-8 0l557 1473h162l559 -1473h-142l-167 453h-660l-170 -453h-139zM344 571h571l-286 758z" />
<glyph unicode="B" horiz-adv-x="1310" d="M164 0v1473h487q129 0 201 -15q80 -12 129 -45q84 -47 131 -131t47 -186q0 -227 -219 -318q133 -29 210 -130t77 -251q0 -131 -60.5 -226t-171.5 -138q-47 -18 -135 -27q-45 0 -140 -3t-149 -3h-407zM299 121h397q221 0 305 63q86 66 86 219q0 301 -380 302h-408v-584z M299 819h315q225 0 315.5 60.5t90.5 207.5q0 145 -86 203q-82 62 -307 62h-328v-533z" />
<glyph unicode="C" horiz-adv-x="1425" d="M100 739q0 358 172 566q175 206 470 206h3q246 0 404 -129q166 -131 166 -340h-133q-16 162 -134 255.5t-303 93.5q-238 0 -371.5 -171t-133.5 -479q0 -311 135 -487t375 -176q199 0 313 106q133 123 133 297h133q0 -227 -174 -385q-154 -135 -414 -135q-297 0 -469 207 q-172 209 -172 571z" />
<glyph unicode="D" horiz-adv-x="1427" d="M164 0v1473h346h100q184 0 273 -19q90 -18 157 -61q279 -178 279 -654q0 -506 -309 -676q-61 -33 -158 -49q-88 -14 -283 -14h-405zM299 121h285q164 0 241 12q80 12 131 43q221 131 222 559q0 414 -211 551q-49 35 -133 51q-72 14 -265 15h-32h-238v-1231z" />
<glyph unicode="E" horiz-adv-x="1239" d="M164 0v1473h964v-121h-829v-537h758v-117h-758v-577h854v-121h-989z" />
<glyph unicode="F" horiz-adv-x="1163" d="M164 0v1473h932v-121h-797v-533h723v-121h-723v-698h-135z" />
<glyph unicode="G" horiz-adv-x="1533" d="M102 741q0 360 181 564q181 206 484 206h3q258 0 418 -121.5t192 -345.5h-139q-31 160 -155.5 254.5t-313.5 94.5q-256 0 -394 -169t-138 -483q0 -307 137 -481q139 -176 379 -176q244 0 379 143.5t135 401.5v6h-486v121h615v-756h-109l-14 260q-68 -141 -204 -220 t-310 -79q-305 0 -483 207q-177 212 -177 573z" />
<glyph unicode="H" horiz-adv-x="1441" d="M164 0v1473h135v-639h842v639h137v-1473h-137v713h-842v-713h-135z" />
<glyph unicode="I" horiz-adv-x="485" d="M172 0v1473h139v-1473h-139z" />
<glyph unicode="J" horiz-adv-x="985" d="M45 346v107h135v-95q0 -143 60.5 -210.5t187.5 -67.5q143 0 204.5 70.5t61.5 238.5v1084h135v-1115q0 -193 -104 -295t-301 -102q-379 0 -379 385z" />
<glyph unicode="K" horiz-adv-x="1308" d="M164 0v1473h135v-781l760 781h174l-598 -611l668 -862h-168l-590 772l-246 -252v-520h-135z" />
<glyph unicode="L" horiz-adv-x="1064" d="M164 0v1473h139v-1352h752v-121h-891z" />
<glyph unicode="M" horiz-adv-x="1669" d="M162 0v1473h190l486 -1297l477 1297h190v-1473h-131v1284l-473 -1284h-125l-481 1284v-1284h-133z" />
<glyph unicode="N" horiz-adv-x="1441" d="M164 0v1473h149l832 -1264v1264h131v-1473h-150l-829 1264v-1264h-133z" />
<glyph unicode="O" horiz-adv-x="1550" d="M100 735.5q0 356.5 183 567.5q179 208 488 209q1 0 3 -1q311 0 494 -208q182 -211 182 -568q0 -354 -182 -565q-182 -209 -494 -209q-309 0 -491 207q-183 211 -183 567.5zM240 735q0 -303 143 -479q145 -176 391 -176t391.5 176t145.5 479t-146 479q-145 178 -391 178 q-1 0 -1 1q-245 0 -388 -179q-145 -180 -145 -479z" />
<glyph unicode="P" horiz-adv-x="1236" d="M164 0v1473h514q483 0 483 -414q0 -420 -549 -420h-313v-639h-135zM299 762h315q217 0 312.5 70.5t95.5 228.5q0 150 -85 220.5t-265 70.5h-373v-590z" />
<glyph unicode="Q" horiz-adv-x="1550" d="M100 737q0 356 183 566q179 208 488 208h3q311 0 494 -208q182 -211 182 -568q0 -393 -219 -598l186 -149l-74 -94l-210 165q-129 -98 -359 -98q-309 0 -491 207q-183 212 -183 569zM240 735q0 -305 145 -481q147 -174 401 -174q138 0 244 63l-174 142l74 94l203 -162 q178 166 178 518q0 303 -146 479q-145 178 -391 178l-1 1q-245 0 -388 -179q-145 -180 -145 -479z" />
<glyph unicode="R" horiz-adv-x="1325" d="M164 0v1473h491q174 0 246 -15q80 -12 135 -45q180 -100 181 -332q0 -279 -238 -362q90 -31 129 -92t55 -250l19 -221q0 -76 47 -136v-20h-150q-12 25 -20 63l-8 37q-4 33 -4 52l-17 194q0 184 -72 256q-57 57 -229 57h-430v-659h-135zM299 780h391q205 0 296 70t91 227 q0 150 -110 223q-37 27 -99 39q-57 12 -186 13h-57h-326v-572z" />
<glyph unicode="S" horiz-adv-x="1241" d="M94 436v10h135q0 -174 108.5 -270t305.5 -96q172 0 270.5 78t98.5 213q0 129 -70 192q-70 68 -274 119l-140 35q-225 57 -313 147q-86 90 -86 252q0 180 131 287q132 108 346 108h4q231 0 363.5 -118.5t132.5 -329.5h-137q0 154 -96.5 241t-268.5 87q-162 0 -251 -73 t-89 -206q0 -100 57.5 -157.5t192.5 -94.5l172 -43q256 -66 356 -162q104 -98 105 -270q0 -199 -135 -311.5t-371 -112.5q-262 0 -404.5 123t-142.5 352z" />
<glyph unicode="T" d="M18 1352v121h1053v-121h-457v-1352h-139v1352h-457z" />
<glyph unicode="U" horiz-adv-x="1427" d="M154 526v947h135v-928q0 -246 100 -355.5t323.5 -109.5t325 109.5t101.5 355.5v928h135v-947q0 -565 -561 -565q-559 0 -559 565z" />
<glyph unicode="V" horiz-adv-x="1163" d="M0 1473h139l445 -1301l444 1301h137l-510 -1473h-145z" />
<glyph unicode="W" horiz-adv-x="1759" d="M12 1473h133l328 -1270l326 1270h166l321 -1270l332 1270h129l-387 -1473h-148l-333 1309l-340 -1309h-146z" />
<glyph unicode="X" horiz-adv-x="1202" d="M23 0l493 758l-477 715h160l395 -603l391 603h158l-473 -719l510 -754h-162l-424 639l-412 -639h-159z" />
<glyph unicode="Y" horiz-adv-x="1146" d="M-12 1473h153l432 -697l433 697h155l-520 -826v-647h-135v647z" />
<glyph unicode="Z" horiz-adv-x="1165" d="M35 0v125l911 1227h-842v121h1010v-117l-917 -1233h931v-123h-1093z" />
<glyph unicode="[" horiz-adv-x="675" d="M246 -408v1881h372v-103h-247v-1673h247v-105h-372z" />
<glyph unicode="\" horiz-adv-x="598" d="M-25 1511h99l549 -1681h-99z" />
<glyph unicode="]" horiz-adv-x="675" d="M57 -303h248v1673h-248v103h373v-1881h-373v105z" />
<glyph unicode="^" horiz-adv-x="2048" d="M424 901l539 557h118l541 -557h-125l-473 469l-475 -469h-125z" />
<glyph unicode="_" horiz-adv-x="1024" d="M0 -401h1024v-80h-1024v80z" />
<glyph unicode="`" horiz-adv-x="1024" d="M276 1550h152l209 -350h-92z" />
<glyph unicode="a" horiz-adv-x="1097" d="M84 281q0 182 170 266q59 27 127 41q90 18 190 18l66 6l35 6q152 31 151 132q0 125 -61.5 178t-202.5 53t-219 -59q-82 -66 -82 -177h-121q0 156 115 250.5t307 94.5q389 0 389 -322v-580q0 -63 15.5 -80.5t60.5 -17.5h25q14 0 20 2v-92l-45 -4l-43 -4q-152 0 -152 145 v17q-166 -178 -393 -179q-160 0 -256 83t-96 223zM211 283q0 -90 64.5 -144.5t175.5 -54.5q168 0 269 87t101 239v147q-57 -18 -127 -29q-125 -20 -245 -20q-238 -63 -238 -225z" />
<glyph unicode="b" horiz-adv-x="1181" d="M137 0v1473h123v-599q121 215 373 216q217 0 344 -152t127 -408q0 -258 -128 -407.5t-351 -149.5q-252 0 -365 211v-184h-123zM254 530q0 -213 95 -331.5t265 -118.5q172 0 265.5 116.5t93.5 333.5q0 215 -94.5 333t-264.5 118q-172 0 -266 -117t-94 -334z" />
<glyph unicode="c" horiz-adv-x="1056" d="M84 524q0 262 127 414t346 152q182 0 295 -101q125 -111 125 -264h-119q-14 117 -97 186.5t-204 69.5q-160 0 -253 -120t-93 -326q0 -209 94 -333t254 -124q123 0 207 77t102 212h123q-16 -182 -134 -287t-308 -105q-215 0 -340 146.5t-125 402.5z" />
<glyph unicode="d" horiz-adv-x="1189" d="M86 530q0 256 127 408q129 152 346 152q254 0 367 -211v594h123v-1473h-123v180q-121 -207 -375 -207q-215 0 -340 149.5t-125 407.5zM217 530q0 -213 94.5 -331.5t263.5 -118.5q174 0 267.5 116.5t93.5 334t-94 334t-267 116.5q-170 0 -264 -118t-94 -333z" />
<glyph unicode="e" horiz-adv-x="1085" d="M84 526q0 264 123 414t344 150q215 0 334 -141.5t119 -399.5v-41h-795v-6q0 -195 94 -310.5t252 -115.5q125 0 209 67.5t102 184.5h123q-18 -160 -140 -257.5t-302 -97.5q-217 0 -340 145.5t-123 407.5zM211 606h666q0 168 -97 277q-86 100 -231.5 100t-237.5 -102 q-100 -113 -100 -275z" />
<glyph unicode="f" horiz-adv-x="544" d="M41 963v100h156v194q0 119 60 174.5t192 55.5q23 0 28 -2q14 0 35 -4v-111h-12l-56 4q-70 0 -97.5 -28.5t-27.5 -100.5v-182h193v-100h-193v-963h-122v963h-156z" />
<glyph unicode="g" horiz-adv-x="1185" d="M86 530q0 256 127 408q129 152 344 152q129 0 215 -54q92 -51 154 -157v184h123v-1008q0 -489 -504 -489q-182 0 -301 84q-59 43 -90 96q-35 59 -35 131h127q8 -94 86 -149q80 -51 211 -52q385 0 385 375v131q-131 -209 -371 -209q-219 0 -345 148.5t-126 408.5zM217 530 q0 -211 95.5 -331.5t262.5 -120.5q170 0 265.5 118.5t95.5 333.5t-94 333t-267 118q-170 0 -264 -118t-94 -333z" />
<glyph unicode="h" horiz-adv-x="1107" d="M137 0v1473h125v-576q123 193 350 193q225 0 318 -150q25 -41 33 -92q10 -57 10 -201v-647h-125v645q0 199 -57 264q-57 70 -203 70q-147 0 -238 -96q-88 -94 -88 -256v-627h-125z" />
<glyph unicode="i" horiz-adv-x="421" d="M150 0v1063h122v-1063h-122zM150 1288v185h122v-185h-122z" />
<glyph unicode="j" horiz-adv-x="446" d="M20 -319l21 -3h27q66 0 92 29t26 103v1253h123v-1268q0 -119 -51 -174t-162 -55l-59 6q-13 0 -17 2v107zM186 1288v185h123v-185h-123z" />
<glyph unicode="k" horiz-adv-x="991" d="M137 0v1473h123v-926l531 516h157l-401 -389l450 -674h-141l-395 592l-201 -193v-399h-123z" />
<glyph unicode="l" horiz-adv-x="421" d="M150 0v1473h122v-1473h-122z" />
<glyph unicode="m" horiz-adv-x="1708" d="M137 0v1063h115v-176q115 203 338 203q119 0 197.5 -54.5t105.5 -154.5q106 209 342 209q344 0 344 -349v-741h-125v731q0 133 -52 191.5t-171 58.5q-139 0 -225 -87t-86 -228v-666h-123v719q0 260 -224 260q-139 0 -226 -89t-87 -233v-657h-123z" />
<glyph unicode="n" horiz-adv-x="1103" d="M137 0v1063h119v-170q121 197 352 197q227 0 320 -150q43 -70 43 -262v-31v-647h-127v659q0 186 -60 252q-59 68 -200 68q-147 0 -234.5 -94t-87.5 -258v-627h-125z" />
<glyph unicode="o" horiz-adv-x="1142" d="M84 530.5q0 266.5 128 413t359.5 146.5t360.5 -146.5t129 -413t-128 -411t-362 -144.5q-231 0 -359 144.5t-128 411zM211 530q0 -213 94 -331.5t266 -118.5t266.5 117.5t94.5 332.5q0 217 -94.5 334t-266.5 117q-170 0 -265 -118t-95 -333z" />
<glyph unicode="p" horiz-adv-x="1187" d="M141 -426v1489h125v-191q119 217 371 218q219 0 345 -149.5t126 -410.5q0 -262 -127 -409.5t-350 -147.5q-244 0 -365 211v-610h-125zM260 530q0 -211 95.5 -330.5t262.5 -119.5q174 0 267.5 117.5t93.5 332.5q0 217 -94 334t-267 117q-170 0 -264 -118t-94 -333z" />
<glyph unicode="q" horiz-adv-x="1189" d="M84 530q0 260 126 410t347 150q242 0 365 -211v184h122v-1489h-122v616q-57 -106 -152 -163q-90 -53 -217 -54q-217 0 -343 147.5t-126 409.5zM213 530q0 -213 94 -331.5t264 -118.5q172 0 266.5 117.5t94.5 332.5t-94.5 333t-266.5 118q-170 0 -264 -118t-94 -333z" />
<glyph unicode="r" horiz-adv-x="628" d="M137 0v1063h119v-186q90 213 328 213h14v-129h-16q-317 0 -318 -375v-586h-127z" />
<glyph unicode="s" horiz-adv-x="1005" d="M92 332h123q0 -109 81 -178.5t204 -69.5q133 0 209.5 52t76.5 143q0 129 -282 196l-6 2q-227 51 -308 119q-76 68 -75 186q0 137 102 222.5t264 85.5q176 0 285 -91q117 -100 117 -247h-125q0 102 -80 168q-74 61 -199 61q-109 0 -174 -50t-65 -132q0 -141 290 -209 l58 -15q182 -47 252 -112q72 -66 71 -187q0 -137 -112 -219q-115 -84 -293 -84q-184 0 -297 97q-117 104 -117 262z" />
<glyph unicode="t" horiz-adv-x="555" d="M31 963v100h145v305h123v-305h197v-100h-197v-775q0 -68 16.5 -90t61.5 -22l43 4l76 14v-96q-90 -23 -152 -23q-92 0 -130 46.5t-38 166.5v775h-145z" />
<glyph unicode="u" horiz-adv-x="1107" d="M133 348v715h123v-686q0 -158 60.5 -225.5t199.5 -67.5q154 0 242 93t88 257v629h123v-1063h-119v170q-119 -197 -356 -197q-360 0 -361 375z" />
<glyph unicode="v" horiz-adv-x="948" d="M6 1063h133l340 -913l334 913h127l-397 -1063h-137z" />
<glyph unicode="w" horiz-adv-x="1417" d="M0 1063h125l274 -889l244 889h137l240 -889l272 889h125l-334 -1063h-131l-245 889l-244 -889h-129z" />
<glyph unicode="x" horiz-adv-x="913" d="M0 0l373 545l-357 518h154l279 -424l274 424h149l-348 -516l387 -547h-155l-305 451l-304 -451h-147z" />
<glyph unicode="y" horiz-adv-x="954" d="M0 1063h131l344 -907l336 907h127l-471 -1268q-45 -123 -110.5 -176t-174.5 -53l-47 4q-16 0 -39 6v113l54 -8l30 -3q70 0 106 35t79 144l49 133z" />
<glyph unicode="z" horiz-adv-x="950" d="M41 0v102l688 859h-653v102h801v-109l-678 -845h708v-109h-866z" />
<glyph unicode="{" horiz-adv-x="1024" d="M176 485v90l21 -2h28q137 0 195.5 64.5t58.5 222.5v240q0 227 68 301q70 76 258 76h43v-88h-37q-133 0 -182 -54q-47 -53 -47 -211v-241q0 -174 -43 -248q-39 -70 -152 -105q109 -31 152 -104.5t43 -247.5v-239q0 -160 47 -211q45 -51 180 -52h39v-88h-43q-188 0 -258 76 q-68 74 -68 299v238q0 158 -58.5 222t-199.5 64l-22 -2h-23z" />
<glyph unicode="|" horiz-adv-x="1024" d="M467 -481v2046h90v-2046h-90z" />
<glyph unicode="}" horiz-adv-x="1024" d="M176 -324h39q135 0 180 52q47 51 47 211v239q0 174 43 246t154 106q-106 31 -154 105q-43 74 -43 248v241q0 160 -47 213q-45 51 -182 52h-37v88h43q188 0 256 -76q70 -72 70 -301v-240q0 -158 58.5 -222.5t199.5 -64.5h20l25 2v-90h-25l-20 2q-141 0 -199.5 -64.5 t-58.5 -221.5v-238q0 -227 -70 -299q-68 -76 -256 -76h-43v88z" />
<glyph unicode="~" horiz-adv-x="1705" d="M178 481v92q217 145 387 146q102 0 271 -62l18 -6l29 -10q168 -61 260 -61q164 0 387 159v-92q-213 -147 -387 -147q-98 0 -266 61l-23 8l-33 13q-168 59 -256 59q-162 0 -387 -160z" />
<glyph unicode="&#xa2;" d="M72 524q0 266 131 416q133 152 354 152q33 0 55 -5l58 -8l75 234h103l-84 -264q100 -45 158 -127q63 -92 63 -197h-119q-14 143 -139 213l-272 -844l61 -8l47 -4q125 0 210.5 77t103.5 208h120q0 -172 -131 -287q-119 -106 -305 -107h-37q-63 6 -102 17l-88 -275h-103 l97 303q-256 129 -256 506zM201 537q0 -302 166 -404l270 840l-43 8l-37 2q-166 0 -261 -119t-95 -327z" />
<glyph unicode="&#xa3;" d="M63 647v88h152q-59 109 -84 178q-23 74 -22 140q0 164 124 270q127 111 320 111q211 0 331 -118t120 -323v-10h-127q0 156 -87.5 244t-240.5 88q-137 0 -221 -75t-84 -198q0 -80 88 -241l35 -66h329v-88h-290l16 -78q6 -33 6 -63q0 -199 -186 -385q109 55 204 55 q57 0 168 -43t162 -43q92 0 219 109l68 -95q-158 -145 -303 -145q-61 0 -190.5 47t-196.5 47q-105 0 -203 -63l-74 112q207 141 207 369q0 45 -10 86q-14 53 -33 90h-197z" />
<glyph unicode="&#xa5;" horiz-adv-x="1146" d="M-4 1391h145l432 -662l433 662h149l-295 -443h281v-90h-338l-109 -158h447v-88h-500v-612h-135v612h-500v88h447l-107 158h-340v90h279z" />
<glyph unicode="&#xa8;" horiz-adv-x="1024" d="M281 1278v162h141v-162h-141zM602 1278v162h141v-162h-141z" />
<glyph unicode="&#xa9;" horiz-adv-x="1705" d="M123 721q0 299 217 520q205 211 512 211q309 0 520 -215q211 -211 211 -516q6 -219 -119 -402.5t-334 -273.5q-137 -53 -278 -53q-188 -8 -360.5 93t-273.5 274t-95 362zM195 721q-8 -258 194.5 -460t462.5 -198q264 -4 467.5 197t191.5 461q8 266 -192.5 465.5 t-466.5 193.5q-258 10 -460 -192.5t-197 -466.5zM471 725q0 207 107 328q106 123 282 123q131 0 221 -72t105 -186h-105q-20 82 -80.5 127t-146.5 45q-127 0 -196.5 -97.5t-69.5 -273.5q0 -168 71.5 -266.5t194.5 -98.5q90 0 155.5 52.5t84.5 140.5h102q-10 -123 -109 -201 q-96 -78 -239 -78q-172 0 -274.5 124t-102.5 333z" />
<glyph unicode="&#xab;" horiz-adv-x="833" d="M78 461v153l291 220v-134l-209 -163l209 -162v-133zM446 461v153l291 220v-134l-211 -163l211 -162v-133z" />
<glyph unicode="&#xad;" horiz-adv-x="669" d="M80 473v129h495v-129h-495z" />
<glyph unicode="&#xae;" horiz-adv-x="1705" d="M123 721q0 299 217 520q205 211 512 211q309 0 520 -215q211 -211 211 -516q6 -219 -119 -402.5t-334 -273.5q-137 -53 -278 -53q-188 -8 -360.5 93t-273.5 274t-95 362zM195 721q-8 -258 194.5 -460t462.5 -198q264 -4 467.5 197t191.5 461q8 266 -192.5 465.5 t-466.5 193.5q-258 10 -460 -192.5t-197 -466.5zM569 309v846h305q180 0 264.5 -56.5t84.5 -176.5q0 -88 -54.5 -147.5t-148.5 -72.5l190 -393h-131l-182 377h-213v-377h-115zM684 764h168q141 0 197.5 37t56.5 125q0 80 -61.5 115.5t-192.5 35.5h-168v-313z" />
<glyph unicode="&#xb4;" horiz-adv-x="1024" d="M387 1200l209 350h152l-269 -350h-92z" />
<glyph unicode="&#xb8;" horiz-adv-x="1024" d="M303 -340l135 -27q51 -8 103 -8q131 0 131 90q0 104 -146 105h-28q-14 0 -19 -2v182h66v-109h14q223 0 223 -172q0 -84 -58 -130t-167 -46q-53 0 -121 11q-72 8 -133 28v78z" />
<glyph unicode="&#xbb;" horiz-adv-x="833" d="M98 242v133l209 162l-209 163v134l291 -220v-153zM465 242v133l211 162l-211 163v134l291 -220v-153z" />
<glyph unicode="&#xc2;" horiz-adv-x="1261" d="M-8 0l557 1473h162l559 -1473h-142l-167 453h-660l-170 -453h-139zM344 571h571l-286 758zM377 1620l200 350h152l200 -350h-92l-184 264l-184 -264h-92z" />
<glyph unicode="&#xc7;" horiz-adv-x="1425" d="M100 739q0 358 172 566q176 207 473 206q246 0 404 -129q166 -131 166 -340h-133q-16 162 -134 255.5t-303 93.5q-238 0 -371.5 -171t-133.5 -479q0 -311 135 -487t375 -176q199 0 313 106q133 123 133 297h133q0 -227 -174 -385q-154 -135 -410 -135v-70h15 q223 0 223 -172q0 -84 -58.5 -130t-166.5 -46q-53 0 -121 11q-63 8 -133 28v78q100 -20 137 -27q51 -8 100 -8q131 0 131 90q0 104 -145 105h-29q-14 0 -16 -2l-2 145q-119 0 -229 53q-98 53 -179 152q-172 209 -172 571z" />
<glyph unicode="&#xce;" horiz-adv-x="485" d="M-32 1620l200 350h152l200 -350h-92l-184 264l-184 -264h-92zM172 0v1473h139v-1473h-139z" />
<glyph unicode="&#xd6;" horiz-adv-x="1550" d="M100 735.5q0 356.5 183 567.5q180 209 491 208q311 0 494 -208q182 -211 182 -568q0 -354 -182 -565q-182 -209 -494 -209q-309 0 -491 207q-183 211 -183 567.5zM240 735q0 -303 143 -479q145 -176 391 -176t391.5 176t145.5 479t-146 479q-145 178 -391 178.5 t-389 -178.5q-145 -180 -145 -479zM545 1698v162h141v-162h-141zM866 1698v162h141v-162h-141z" />
<glyph unicode="&#xdb;" horiz-adv-x="1427" d="M154 526v947h135v-928q0 -246 100 -355.5t323.5 -109.5t325 109.5t101.5 355.5v928h135v-947q0 -565 -561 -565q-559 0 -559 565zM439 1620l200 350h152l200 -350h-92l-184 264l-184 -264h-92z" />
<glyph unicode="&#xdc;" horiz-adv-x="1427" d="M154 526v947h135v-928q0 -246 100 -355.5t323.5 -109.5t325 109.5t101.5 355.5v928h135v-947q0 -565 -561 -565q-559 0 -559 565zM484 1698v162h141v-162h-141zM805 1698v162h141v-162h-141z" />
<glyph unicode="&#xe2;" horiz-adv-x="1097" d="M84 281q0 182 170 266q59 27 127 41q90 18 190 18l66 6l35 6q152 31 151 132q0 125 -61.5 178t-202.5 53t-219 -59q-82 -66 -82 -177h-121q0 156 115 250.5t307 94.5q389 0 389 -322v-580q0 -63 15.5 -80.5t60.5 -17.5h25q14 0 20 2v-92l-45 -4l-43 -4q-152 0 -152 145 v17q-166 -178 -393 -179q-160 0 -256 83t-96 223zM211 283q0 -90 64.5 -144.5t175.5 -54.5q168 0 269 87t101 239v147q-57 -18 -127 -29q-125 -20 -245 -20q-238 -63 -238 -225zM281 1200l200 350h152l200 -350h-92l-184 264l-184 -264h-92z" />
<glyph unicode="&#xe7;" horiz-adv-x="1056" d="M84 524q0 262 127 414t346 152q182 0 295 -101q125 -111 125 -264h-119q-14 117 -97 186.5t-204 69.5q-160 0 -253 -120t-93 -326q0 -209 94 -333t254 -124q123 0 207 76.5t102 212.5h123q-16 -182 -135 -289q-115 -102 -295 -103v-84h14q223 0 224 -172 q0 -84 -58.5 -130t-167.5 -46q-55 0 -120 11q-72 8 -134 28v78q68 -16 136 -27q51 -8 102 -8q131 0 131 90q0 104 -145 105h-29q-14 0 -18 -2v159q-178 14 -287 144q-125 145 -125 403z" />
<glyph unicode="&#xee;" horiz-adv-x="421" d="M-65 1200l200 350h152l200 -350h-92l-184 264l-184 -264h-92zM150 0v1063h122v-1063h-122z" />
<glyph unicode="&#xf6;" horiz-adv-x="1142" d="M84 530.5q0 266.5 128 413t359.5 146.5t360.5 -146.5t129 -413t-128 -411t-362 -144.5q-231 0 -359 144.5t-128 411zM211 530q0 -213 94 -331.5t266 -118.5t266.5 117.5t94.5 332.5q0 217 -94.5 334t-266.5 117q-170 0 -265 -118t-95 -333zM340 1278v162h141v-162h-141z M661 1278v162h141v-162h-141z" />
<glyph unicode="&#xfb;" horiz-adv-x="1107" d="M133 348v715h123v-686q0 -158 60.5 -225.5t199.5 -67.5q154 0 242 93t88 257v629h123v-1063h-119v170q-119 -197 -356 -197q-360 0 -361 375zM279 1200l200 350h152l200 -350h-92l-184 264l-184 -264h-92z" />
<glyph unicode="&#xfc;" horiz-adv-x="1107" d="M133 348v715h123v-686q0 -158 60.5 -225.5t199.5 -67.5q154 0 242 93t88 257v629h123v-1063h-119v170q-119 -197 -356 -197q-360 0 -361 375zM324 1278v162h141v-162h-141zM645 1278v162h141v-162h-141z" />
<glyph unicode="&#x11e;" horiz-adv-x="1533" d="M102.5 739.5q-0.5 360.5 180.5 565.5q182 207 487 206q258 0 418 -121.5t192 -345.5h-139q-31 160 -155.5 254.5t-313.5 94.5q-256 0 -394 -169t-138 -483q0 -307 137 -481q139 -176 379 -176q244 0 379 143.5t135 401.5v6h-486v121h615v-756h-109l-14 260 q-68 -141 -204 -220t-310 -79q-305 0 -483 207q-176 211 -176.5 571.5zM494 1925h79q0 -70 54 -110q47 -35 141 -35q96 0 140 32.5t53 112.5h81q0 -129 -75 -198q-63 -63 -199 -64q-133 0 -199 64q-75 69 -75 198z" />
<glyph unicode="&#x11f;" horiz-adv-x="1185" d="M86 530q0 256 127 408q129 152 344 152q129 0 215 -54q92 -51 154 -157v184h123v-1008q0 -489 -504 -489q-182 0 -301 84q-59 43 -90 96q-35 59 -35 131h127q8 -94 86 -149q80 -51 211 -52q385 0 385 375v131q-131 -209 -371 -209q-219 0 -345 148.5t-126 408.5zM217 530 q0 -211 95.5 -331.5t262.5 -120.5q170 0 265.5 118.5t95.5 333.5t-94 333t-267 118q-170 0 -264 -118t-94 -333zM320 1505h79q0 -70 54 -110q47 -35 141 -35q96 0 140 32.5t53 112.5h81q0 -129 -75 -198q-63 -63 -199 -64q-133 0 -199 64q-75 69 -75 198z" />
<glyph unicode="&#x130;" horiz-adv-x="485" d="M168 1692v174h152v-174h-152zM172 0v1473h139v-1473h-139z" />
<glyph unicode="&#x131;" horiz-adv-x="421" d="M150 0v1063h122v-1063h-122z" />
<glyph unicode="&#x15e;" horiz-adv-x="1241" d="M94 436v10h135q0 -174 108.5 -270t305.5 -96q172 0 270.5 78t98.5 213q0 129 -70 192q-70 68 -274 119l-140 35q-225 57 -313 147q-86 90 -86 252q0 180 131 287q133 109 350 108q231 0 363.5 -118.5t132.5 -329.5h-137q0 154 -96.5 241t-268.5 87q-162 0 -251 -73 t-89 -206q0 -100 57.5 -157.5t192.5 -94.5l172 -43q256 -66 356 -162q104 -98 105 -270q0 -197 -134 -310.5t-360 -113.5v-70h15q223 0 223 -172q0 -84 -58.5 -130t-166.5 -46q-53 0 -121 11q-66 8 -133 28v78q100 -20 137 -27q51 -8 100 -8q131 0 131 90q0 104 -145 105 h-29q-12 0 -16 -2l-2 143q-209 0 -352 121q-141 127 -142 354z" />
<glyph unicode="&#x15f;" horiz-adv-x="1005" d="M92 332h123q0 -109 81 -178.5t204 -69.5q133 0 209.5 52t76.5 143q0 129 -282 196l-6 2q-227 51 -308 119q-76 68 -75 186q0 137 102 222.5t264 85.5q176 0 285 -91q117 -100 117 -247h-125q0 102 -80 168q-74 61 -199 61q-109 0 -174 -50t-65 -132q0 -141 290 -209 l58 -15q182 -47 252 -112q72 -66 71 -187q0 -135 -112 -221q-115 -82 -262 -82v-82h14q223 0 223 -172q0 -84 -58.5 -130t-166.5 -46q-53 0 -121 11q-63 8 -133 28v78l135 -27q51 -8 102 -8q131 0 132 90q0 104 -146 105h-29q-14 0 -18 -2v155q-154 0 -262 97 q-117 104 -117 262z" />
<glyph unicode="&#x2c6;" horiz-adv-x="1024" d="M236 1200l200 350h152l200 -350h-92l-184 264l-184 -264h-92z" />
<glyph unicode="&#x2da;" horiz-adv-x="1024" d="M272 1423.5q0 102.5 69 171t171 68.5t172 -69.5t70 -170t-72 -172.5q-70 -70 -170 -69.5t-170 70t-70 172zM362 1421.5q0 -63.5 44.5 -106.5t105.5 -43t105.5 44t44.5 105q0 63 -43.5 107.5t-106.5 44.5t-106.5 -44t-43.5 -107.5z" />
<glyph unicode="&#x2dc;" horiz-adv-x="1024" d="M223 1260q20 88 70.5 135t124.5 47q23 0 28 -2l25 -6l96 -33l29 -8l27 -2q61 0 96 73h82q-49 -182 -191 -182l-30 2l-35 8l-96 31l-25 6l-29 2q-63 0 -92 -71h-80z" />
<glyph unicode="&#x2000;" horiz-adv-x="986" />
<glyph unicode="&#x2001;" horiz-adv-x="1972" />
<glyph unicode="&#x2002;" horiz-adv-x="986" />
<glyph unicode="&#x2003;" horiz-adv-x="1972" />
<glyph unicode="&#x2004;" horiz-adv-x="657" />
<glyph unicode="&#x2005;" horiz-adv-x="493" />
<glyph unicode="&#x2006;" horiz-adv-x="328" />
<glyph unicode="&#x2007;" horiz-adv-x="328" />
<glyph unicode="&#x2008;" horiz-adv-x="246" />
<glyph unicode="&#x2009;" horiz-adv-x="394" />
<glyph unicode="&#x200a;" horiz-adv-x="109" />
<glyph unicode="&#x2010;" horiz-adv-x="669" d="M80 473v129h495v-129h-495z" />
<glyph unicode="&#x2011;" horiz-adv-x="669" d="M80 473v129h495v-129h-495z" />
<glyph unicode="&#x2012;" horiz-adv-x="669" d="M80 473v129h495v-129h-495z" />
<glyph unicode="&#x2013;" horiz-adv-x="1024" d="M0 492v92h1024v-92h-1024z" />
<glyph unicode="&#x2014;" horiz-adv-x="2048" d="M0 492v92h2048v-92h-2048z" />
<glyph unicode="&#x2018;" horiz-adv-x="497" d="M180 1044v246q0 90 31.5 140t105.5 81v-77q-35 -25 -49 -56q-14 -29 -14 -80v-71h63v-183h-137z" />
<glyph unicode="&#x2019;" horiz-adv-x="497" d="M180 1004v79q63 45 64 134v71h-64v185h137v-248q0 -92 -30.5 -140t-106.5 -81z" />
<glyph unicode="&#x201a;" horiz-adv-x="497" d="M180 0v182h137v-243q0 -94 -32 -142q-27 -51 -105 -80v78q63 49 64 135v70h-64z" />
<glyph unicode="&#x201c;" horiz-adv-x="808" d="M180 1044v246q0 96 29 137q26 47 108 84v-77q-35 -23 -49 -54q-14 -27 -14 -82v-71h63v-183h-137zM492 1044v246q0 90 30.5 140t104.5 81v-77q-63 -39 -64 -136v-71h64v-183h-135z" />
<glyph unicode="&#x201d;" horiz-adv-x="808" d="M180 1004v79q35 23 49 52q14 27 15 82v71h-64v185h137v-248q0 -90 -30.5 -140t-106.5 -81zM492 1004v79q63 39 63 134v71h-63v185h135v-248q0 -92 -30.5 -141t-104.5 -80z" />
<glyph unicode="&#x201e;" horiz-adv-x="808" d="M180 0v182h137v-243q0 -94 -32 -142q-27 -51 -105 -80v78q63 39 64 135v70h-64zM492 0v182h135v-243q0 -92 -30.5 -141.5t-104.5 -80.5v78q35 23 49 53q14 27 14 82v70h-63z" />
<glyph unicode="&#x2022;" horiz-adv-x="1208" d="M307 762q0 123 86 209q90 86 211 86t207 -86q88 -86 88 -209q0 -121 -88 -209q-86 -88 -209 -88t-209 88q-86 90 -86 209z" />
<glyph unicode="&#x2026;" horiz-adv-x="2048" d="M274 0v182h136v-182h-136zM956 0v182h136v-182h-136zM1640 0v182h136v-182h-136z" />
<glyph unicode="&#x202f;" horiz-adv-x="394" />
<glyph unicode="&#x2039;" horiz-adv-x="466" d="M78 461v153l291 220v-134l-209 -163l209 -162v-133z" />
<glyph unicode="&#x203a;" horiz-adv-x="466" d="M98 242v133l209 162l-209 163v134l291 -220v-153z" />
<glyph unicode="&#x205f;" horiz-adv-x="493" />
<glyph unicode="&#x2122;" horiz-adv-x="1705" d="M274 1403v51h420v-51h-174v-479h-67v479h-179zM825 924v530h101l174 -440l162 440h102v-530h-59v479l-181 -479h-49l-190 479v-479h-60z" />
</font>
</defs>
</svg>
