<?xml version="1.0" encoding="utf-8"?>
<!-- Generator: Adobe Illustrator 16.0.0, SVG Export Plug-In . SVG Version: 6.00 Build 0)  -->
<!DOCTYPE svg PUBLIC "-//W3C//DTD SVG 1.1//EN" "http://www.w3.org/Graphics/SVG/1.1/DTD/svg11.dtd">
<svg version="1.1" id="Layer_1" xmlns="http://www.w3.org/2000/svg" xmlns:xlink="http://www.w3.org/1999/xlink" x="0px" y="0px"
	 width="40.2px" height="40.2px" viewBox="0 0 40.2 40.2" style="enable-background:new 0 0 40.2 40.2;" xml:space="preserve">
<style type="text/css">
<![CDATA[
	.st0{fill:#FFFFFF;}
]]>
</style>
<g>
	<path class="st0" d="M8.8,0H1.3C0.6,0,0,0.6,0,1.3v7.5c0,0.7,0.6,1.3,1.3,1.3h7.5c0.7,0,1.3-0.6,1.3-1.3V1.3C10.1,0.6,9.5,0,8.8,0z
		"/>
	<path class="st0" d="M8.8,15.1H1.3c-0.7,0-1.3,0.6-1.3,1.3v7.5c0,0.7,0.6,1.3,1.3,1.3h7.5c0.7,0,1.3-0.6,1.3-1.3v-7.5
		C10.1,15.7,9.5,15.1,8.8,15.1z"/>
	<path class="st0" d="M8.8,30.2H1.3c-0.7,0-1.3,0.6-1.3,1.3V39c0,0.7,0.6,1.3,1.3,1.3h7.5c0.7,0,1.3-0.6,1.3-1.3v-7.5
		C10.1,30.7,9.5,30.2,8.8,30.2z"/>
	<path class="st0" d="M39,0H16.3c-0.7,0-1.3,0.6-1.3,1.3v7.5c0,0.7,0.6,1.3,1.3,1.3H39c0.7,0,1.3-0.6,1.3-1.3V1.3
		C40.2,0.6,39.7,0,39,0z"/>
	<path class="st0" d="M39,15.1H16.3c-0.7,0-1.3,0.6-1.3,1.3v7.5c0,0.7,0.6,1.3,1.3,1.3H39c0.7,0,1.3-0.6,1.3-1.3v-7.5
		C40.2,15.7,39.7,15.1,39,15.1z"/>
	<path class="st0" d="M39,30.2H16.3c-0.7,0-1.3,0.6-1.3,1.3V39c0,0.7,0.6,1.3,1.3,1.3H39c0.7,0,1.3-0.6,1.3-1.3v-7.5
		C40.2,30.7,39.7,30.2,39,30.2z"/>
</g>
</svg>
