<?xml version="1.0" encoding="utf-8"?>
<!-- Generator: Adobe Illustrator 16.0.0, SVG Export Plug-In . SVG Version: 6.00 Build 0)  -->
<!DOCTYPE svg PUBLIC "-//W3C//DTD SVG 1.1//EN" "http://www.w3.org/Graphics/SVG/1.1/DTD/svg11.dtd">
<svg version="1.1" id="Layer_1" xmlns="http://www.w3.org/2000/svg" xmlns:xlink="http://www.w3.org/1999/xlink" x="0px" y="0px"
	 width="392px" height="207.5px" viewBox="0 0 392 207.5" style="enable-background:new 0 0 392 207.5;" xml:space="preserve">
<style type="text/css">
<![CDATA[
	.st0{opacity:0.65;}
	.st1{fill:#ED5C72;}
	.st2{fill:#231F20;}
	.st3{clip-path:url(#SVGID_2_);}
	.st4{fill:#FFFFFF;}
]]>
</style>
<g>
	<g class="st0">
		<g>
			<defs>
				<rect id="SVGID_1_" width="392" height="164.6"/>
			</defs>
			<clipPath id="SVGID_2_">
				<use xlink:href="#SVGID_1_"  style="overflow:visible;"/>
			</clipPath>
			<g class="st3">
				<defs>
					<rect id="SVGID_3_" x="0" width="392" height="164.6"/>
				</defs>
				<clipPath id="SVGID_4_">
					<use xlink:href="#SVGID_3_"  style="overflow:visible;"/>
				</clipPath>
				<g transform="matrix(1 0 0 1 5.078549e-012 0)" style="clip-path:url(#SVGID_4_);">
					
						<image style="overflow:visible;" width="893" height="375" xlink:href="2FCB3833.png"  transform="matrix(0.439 0 0 0.439 1.953125e-003 0)">
					</image>
				</g>
			</g>
		</g>
	</g>
	<path class="st4" d="M173.7,104.4c-4.4,9.2-6.8,16.4-7.3,21.6c-0.4,4.4,0.6,6.7,3,6.8c1.9,0.1,5.1-1.6,9.5-5c3.9-3,7.2-6,9.9-9
		c6.5-18.3,10.8-28.5,12.8-30.5c1.5-1.5,4.3-2.7,8.5-3.5c1.7-0.3,3-0.5,4-0.3c1,0.1,1.3,0.5,1,1.2c-2.3,3.8-5.4,9.6-9.1,17.4
		c-5.4,11-8.2,18.5-8.5,22.5c-0.3,4.2,0.2,7,1.6,8.3c1,1,2.6,1.2,4.8,0.7c1.9-0.4,4.6-1.6,8-3.5c3.7-2,6.3-4,8-5.7
		c0.8-0.9,1.5-1.4,1.9-1.6c0.4-0.1,0.5,0,0.5,0.5c-0.1,1.1-0.7,2.2-1.8,3.2c-2.8,2.5-5.8,4.6-9.1,6.4c-4.9,2.6-9.2,3.7-12.9,3.4
		c-5.3-0.5-8.7-2.3-10.2-5.5c-0.9-1.8-1.2-4.4-0.9-8c-1.8,2.1-4.1,4.3-6.8,6.4c-5.5,4.3-10.5,6.3-15,6.3c-2.7,0-4.9-1-6.5-2.9
		c-1.6-1.8-2.6-4.4-3-7.7c-0.8-7,0.9-15.2,5.4-24.5c4.3-9.1,9.2-16.5,14.8-22.3c5.3-5.5,10.1-8.4,14.3-8.6c1.5-0.1,3.6,0.3,6.2,1.1
		c2.6,0.8,4.2,1.6,5.1,2.3c0.8,0.7,1.4,2.2,1.8,4.4c0.4,2,0.5,3.6,0.4,5c-0.1,1.1-0.3,1.7-0.6,1.8c-0.3,0-0.6-0.3-1.1-1.2
		c-0.2-0.3-0.3-0.9-0.4-1.8c-0.1-1.3-0.2-2.1-0.3-2.5c-0.5-2.1-1.6-3.2-3.3-3.3c-2.6-0.1-6,2.1-10.3,6.6
		C182.7,88.1,178,95.3,173.7,104.4"/>
	<path class="st4" d="M229.9,118.3c1.3,8.7,5.5,13.3,12.4,14c10,0.5,18.4-2.3,25.1-8.4c2.1-1.9,3.3-2.6,3.4-2
		c0.2,0.6-0.5,1.7-1.9,3.5c-2.1,2.6-5,4.9-8.7,7c-7.9,3.4-14.8,5-20.5,4.9c-10.2-0.2-17-5.4-20.3-15.7c-3.4-10.3-2.5-23.9,2.4-40.5
		c5.7-19.2,14.5-37,26.2-53.5c6.1-8.5,11.9-14.8,17.6-18.9c6.3-4.5,11.9-6,16.9-4.3c6.5,2.2,9.1,7.6,7.8,16.2
		c-1.2,7.6-5.2,17.1-12.1,28.5c-13.8,22.8-29.9,41.6-48.2,56.4C229.2,109.6,229.2,113.9,229.9,118.3 M230.9,97.1
		c10.6-11.1,20.7-23.1,30.3-36c19.3-25.8,26.7-43.2,22.1-52.1c-2.3-4.4-6.3-3.3-12.1,3.5c-4.9,5.7-10.7,14.9-17.2,27.5
		c-14.6,27.9-22.1,46.5-22.5,55.7L230.9,97.1z"/>
	<path class="st4" d="M278.6,144.6c4.1-7,13-23.1,16.3-29.7c-1.8,1.3-3.1,2.4-3.8,3.1c-7.4,7.5-14.7,12-22,13.6
		c-7.9,1.7-11.2-1.3-9.9-8.9c0.8-4.8,3.4-11.4,7.7-19.6c5.1-9.7,8.4-16.9,10-21.4c0.9-2.8,3.7-4.4,8.3-5c4.3-0.5,7.4,0.1,9.2,1.7
		c1,1,0,3.7-3.1,8.1c-5.7,8.1-9.4,13.5-11,16.4c-4.1,7.1-6.6,12.4-7.5,15.7c-0.9,3.3-0.3,5.1,1.8,5.4c1.7,0.2,6.2-2.6,13.4-8.4
		c0.6-0.5,2.2-2,4.9-4.6c3.3-3.2,5.9-5.6,7.7-7.2c2-3.6,10.9-16.5,26.5-38.7c0.8-1.1,1.6-2.1,2.5-2.9c1.8-1.5,3.2-1.4,4,0.3
		c1.4,3,2.2,5.5,2.3,7.4c0.2,3.1-1,5.8-3.6,8c-15.7,13.3-36.3,44.1-48.6,75.1C283.9,153.2,263.6,170.1,278.6,144.6"/>
	<path class="st4" d="M360.3,71.5c2.6,0.8,4.3,1.6,5.1,2.3c0.7,0.7,1.4,2.2,1.8,4.4c0.4,2,0.5,3.6,0.4,5c-0.1,1.1-0.3,1.7-0.6,1.8
		c-0.3,0-0.6-0.3-1.1-1.2c-0.2-0.3-0.3-0.9-0.4-1.8c-0.1-1.3-0.2-2.1-0.3-2.5c-0.5-2.1-1.6-3.2-3.3-3.3c-2.6-0.1-6,2.1-10.3,6.6
		c-5.2,5.4-10,12.6-14.3,21.7c-4.4,9.2-6.8,16.4-7.3,21.6c-0.4,4.4,0.6,6.7,3,6.8c1.9,0.1,5.1-1.6,9.5-5c3.9-3,7.2-6,9.9-9
		c6.5-18.3,10.8-28.5,12.8-30.5c1.5-1.5,4.3-2.7,8.4-3.5c1.7-0.3,3-0.5,4-0.3c1,0.1,1.3,0.5,1,1.2c-2.3,3.8-5.4,9.6-9.1,17.4
		c-5.4,11-8.2,18.5-8.5,22.5c-0.3,4.2,0.2,7,1.6,8.3c1,1,2.6,1.2,4.8,0.7c1.9-0.4,4.6-1.6,8-3.5c3.7-2,6.3-4,8-5.7
		c0.8-0.9,1.4-1.4,1.9-1.6c0.4-0.1,0.5,0,0.5,0.5c-0.1,1.1-0.7,2.2-1.8,3.2c-2.8,2.5-5.8,4.6-9.1,6.4c-4.9,2.6-9.2,3.7-12.9,3.4
		c-5.3-0.5-8.7-2.3-10.2-5.5c-0.9-1.8-1.2-4.4-0.9-8c-1.8,2.1-4.1,4.3-6.8,6.4c-5.5,4.3-10.5,6.3-15,6.3c-2.7,0-4.9-1-6.5-2.9
		c-1.6-1.8-2.6-4.4-3-7.7c-0.9-7,0.9-15.2,5.3-24.5c4.3-9.1,9.2-16.5,14.8-22.3c5.3-5.5,10.1-8.4,14.3-8.6
		C355.6,70.3,357.7,70.7,360.3,71.5"/>
	<path class="st4" d="M44.5,71.5c2.6,0.8,4.2,1.6,5.1,2.3c0.7,0.7,1.4,2.2,1.8,4.4c0.3,2,0.5,3.6,0.4,5c-0.1,1.1-0.3,1.7-0.6,1.8
		c-0.3,0-0.6-0.3-1.1-1.2c-0.2-0.3-0.3-0.9-0.4-1.8c-0.1-1.3-0.2-2.1-0.3-2.5c-0.5-2.1-1.6-3.2-3.3-3.3c-2.6-0.1-6,2.1-10.3,6.6
		c-5.2,5.4-10,12.6-14.3,21.7c-4.4,9.2-6.8,16.4-7.3,21.6c-0.4,4.4,0.6,6.7,3,6.8c1.9,0.1,5.1-1.6,9.5-5c3.9-3,7.2-6,9.9-9
		c6.5-18.3,10.8-28.5,12.8-30.5c1.5-1.5,4.3-2.7,8.4-3.5c1.7-0.3,3-0.5,4-0.3c1,0.1,1.3,0.5,1,1.2c-2.3,3.8-5.4,9.6-9.1,17.4
		c-5.4,11-8.2,18.5-8.5,22.5c-0.3,4.2,0.2,7,1.6,8.3c1,1,2.6,1.2,4.8,0.7c1.9-0.4,10.8-2.5,7.5-0.7c-4.9,2.6-9.2,3.7-12.9,3.4
		c-5.3-0.5-8.7-2.3-10.2-5.5c-0.9-1.8-1.2-4.4-0.9-8c-1.8,2.1-4.1,4.3-6.8,6.4c-5.5,4.3-10.5,6.3-15,6.3c-2.7,0-4.9-1-6.5-2.9
		c-1.6-1.8-2.6-4.4-3-7.7c-0.8-7,0.9-15.2,5.4-24.5C13.5,92.2,18.4,84.8,24,79c5.3-5.5,10.1-8.4,14.3-8.6
		C39.8,70.3,41.9,70.7,44.5,71.5"/>
	<path class="st4" d="M101.6,137.1c-7.5-0.5-10.9-4.8-10.4-13c0.4-6.1,2.8-13.2,7.1-21.2c0.5-0.9,1-1.7,1.5-2.5
		c-0.1,0.2,2.8-4.3,8.7-13.4c0.1-0.1,0.6-0.9,1.6-2.3c0.8-1.1,1.4-2.1,1.8-2.8c1.4-2.4,2-4.2,1.8-5.5l0-0.3c-0.9,0-2.2,0.3-3.8,1
		c-1.9,0.9-4.5,2.5-7.8,4.9c-8.1,5.9-15.5,13.6-22.2,23c-3.6,5-7,11.5-10.2,19.5c-1.4,3.6-2.3,5.8-2.7,6.7c-0.9,1.7-1.7,2.6-2.4,2.7
		c-4.4,0.5-6.9,0.7-7.3,0.7c-2.8-0.6-3.2-3-1.1-7.3c0.5-0.9,1.9-3.6,4.3-8.2c2-3.8,3.6-7.1,4.9-9.9c3.9-8.9,6.2-18.2,7.1-27.9
		c0.1-0.8,0.4-1.6,1.1-2.4c0.8-1,2-1.8,3.5-2.3c3.1-1.1,4.9-1.7,5.6-1.8c2-0.4,3,0,2.9,1.2c-0.2,1.6-1.5,5.7-3.9,12.2
		c-2.5,6.8-4.5,11.4-5.9,13.8c3.4-4.2,7.6-8.6,12.6-13.2c10-9.3,19-15.1,26.9-17.4c1.6-0.5,3.2-0.7,4.7-0.7c2,0,3.3,0.5,4,1.4
		c1.5,1.3,2.2,3.1,2.3,5.3c0.1,2.5-0.8,5.3-2.6,8.3c-5,8.3-9.5,16.9-13.6,26c-6.1,13.8-7.2,21.2-3.3,22.2c3.5,0.8,7.7,0.2,12.9-2
		C123.2,130.1,114.2,137.9,101.6,137.1"/>
	<path class="st4" d="M171,14.5c0.8-1.6,1.5-3.3,2.2-5.1c0.7-1.8,1.1-2.9,1.2-3.2c0.7-1.4,2.3-2.2,4.7-2.4c4.4-0.2,7.5-0.2,9.1,0
		c3,0.4,3.6,1.5,1.8,3.3c-1.9,2-5.7,8.1-11.3,18.3c-5.4,10-9.2,17.7-11.4,23c7.2,4.4,15.9,6.9,26,7.4c4.2,0.2,8.2-0.2,11.9-1.1
		c4.1-1.1,6.6-1.6,7.5-1.6c1.1,0,1.7,0.4,1.9,1.2c0.1,0.3,0,1.3-0.1,3c0,0.5,0,1.2,0.1,1.9c0.1,0.7,0.1,1.1,0,1.3
		c-0.1,0.7-0.9,1.2-2.4,1.3c-10.5,0.9-19.3,0.6-26.3-0.8c-4.7-1-9.4-2.3-14.1-4c-5.3-1.9-8-2.9-8.2-2.9c-6.6,11.8-12.8,24-18.4,36.4
		c-11.4,24.9-14.9,38.8-10.6,41.8c3.2,2.1,8.6,1.8,16.1-1c4.8-1.8,9.7-1.6,3.6,0.9c-8.4,3.5-16.1,5.2-23,5.2c-7,0-10.9-2.2-11.8-6.5
		c-0.3-1.3,0.1-5.2,1.3-11.5c0.7-4.2,4-12.9,9.8-26.1c6.8-15.4,14-29.6,21.6-42.8c-8-3.8-18.4-5.7-31.2-5.7c-15,0-30.4,2.7-46.3,8.2
		c-2.7,1-3.9,1-3.4,0c0.5-0.9,1.7-1.9,3.6-2.9c6-3.2,15.5-6,28.7-8.3c20.2-3.6,37.3-2.3,51.4,3.7C163,30.2,168.3,20,171,14.5"/>
	<path class="st2" d="M84.1,180.8c-1,0.3-2,0.5-2.9,0.8c-2,0.5-4.1,1-6,1.1c-1.8,0-3.6-0.5-4.9-1.8c-0.8-0.9-1.3-1.9-1.7-3.2
		c-0.4-1.1-0.5-2.4-0.8-3.8c-1.1,2.1-2.8,3.9-4.5,5.5c-1,0.9-1.6,1.6-2.4,1.8c-1.2,0.4-2.4,0-2.9-1.6c-0.3-0.8-0.4-1.7-0.3-6.6
		c0-3.6,0.3-7.8,0.4-11.3c0.3-4.6,0.4-6.5,0.7-11c0.1-1.2,1.9-1.1,1.8,0.3c-0.3,3.8-0.5,7.2-0.7,11c-0.3,3.5-0.4,7.7-0.5,11.1
		c0,4.4,0.2,5.8,0.5,6.3c0.5-0.1,1.3-0.9,2-1.4c1.7-1.6,3.2-3.6,4.5-5.7c0.3-0.5,1.1-2.9,1.1-2.9c0.5-1.1,2.1-0.8,2.1,0.4
		c0,2.2,0.2,5.1,0.7,7.3c0.1,0.9,0.5,1.8,1.1,2.4c0.8,1.2,2.1,1.5,3.6,1.6c1.7,0.3,3.9-0.1,5.9-0.3C82.1,181.1,83,180.9,84.1,180.8"
		/>
	<path class="st2" d="M100.4,180.7c-2,0.4-4.1,1-6.2,1.2c-2.1,0.4-4.3,0.8-6.4,0.9c-2,0.2-5.2,0.3-6.8-0.9c-0.7-0.5-1-1.3-1-2.1
		c0-1.2,0.4-2.5,0.8-3.6c0.7-1.6,1.6-3,2.8-4.3c1.3-1.5,3.5-2.9,5.3-3.1c1.5-0.1,2.5,0.7,2.8,2c0.3,1.6-0.5,3.8-1.5,5.1
		c-1.4,1.8-3.1,3.4-5.2,4.4c-0.5,0.3-1,0.5-1.7,0.8c1.3,0.3,3.1,0.3,4.5,0.3c2.1,0,4.2-0.2,6.3-0.3
		C96.2,180.9,98.3,180.8,100.4,180.7 M82.1,180.3c0.8-0.4,1.7-0.8,2.4-1.2c1.8-0.9,3.2-2.4,4.3-4c0.7-1,1.5-2.8,1.2-3.8
		c0-0.3-0.3-0.5-0.8-0.4c-0.8,0.1-2.5,0.8-4.1,2.5c-0.9,1-1.8,2.5-2.4,3.7C82.3,178,81.9,179.4,82.1,180.3"/>
	<path class="st2" d="M123.2,180.7c-2.5,0.7-5.5,1.5-8.1,1.6c-2.1,0.2-4.5,0-5.7-1.7c-0.5-0.7-0.9-1.6-0.9-2.5
		c-1,0.8-2.1,1.6-3.3,2.3c-1.3,0.8-2.7,1.4-4.3,1.8c-1.3,0.3-2.6,0.3-3.4-0.7c-1-0.9-0.8-2.4-0.4-3.7c1-1.9,3.1-3.9,4.9-5.2
		c1.6-1.3,4.2-3,6.1-2.9c1.2,0.3,1.8,1.2,1.7,2.3c-0.2,0.8-0.5,1.3-0.8,1.4c-0.7,0.7-1.6-0.3-1-0.9c0-0.2,0.1-0.5,0.1-0.7
		c0-0.4-1.1,0-1.4,0c-1.2,0.5-2.5,1.5-3.6,2.3c-1.4,1.1-3.5,2.9-4.3,4.5c-0.3,0.9-0.2,1.6,0,1.8c0.3,0.3,1.3,0.3,1.7,0.3
		c1.5-0.4,2.8-1,4.1-1.6c1.3-0.8,3.2-2.1,4.3-3.3c0.3-0.8,0.7-1.4,1-1.9c0.5-0.8,1.1-1.3,1.6-1.8c0.5-0.4,1.2-0.3,1.5,0.2
		c0.3,0.3,0.3,0.8,0.1,1.1c-0.5,1-1.1,1.8-2.1,2.6c-0.8,1.6-0.6,3.1-0.3,3.6c0.8,1.3,2.9,1.6,4.4,1.6
		C117.5,181.2,120.9,180.9,123.2,180.7"/>
	<path class="st2" d="M131.1,180.8c-1.8,0.8-4.4,1.8-6.3,1.9c-1,0.2-2.1,0.2-3.1-0.3c-0.5-0.4-0.9-1-1.3-2.4
		c-0.5-2.9-0.5-8.4-0.4-11.3c0-3.4,0.4-10,0.9-13.3c0.3-1.1,2-0.8,2,0.4c-0.7,2.9-1,10-1,13.1c-0.1,2.6-0.3,8.1,0.3,10.7
		c0.3,1.1,0.3,1.1,1.5,1.4c1,0.2,2.4,0.2,3,0C128.5,181.1,130.1,180.9,131.1,180.8"/>
	<path class="st2" d="M145.4,168.6c-2.6,1.5-6.6,2.9-10.5,3.4c0.3,7.3,0.5,8.1,0.5,9.2c-0.1,0.7-0.3,1.3-0.8,1.5
		c-0.5,0.1-1.1-0.2-1.1-0.7c-0.2-0.3-0.2-0.6,0.1-0.9c0,0-0.4-6-0.5-8.9c-1.1,0.1-2.4,0.1-3.4-0.2c-1.1-0.3-2.1-0.5-2.7-1.3
		c-0.5-0.3-0.8-1-1-1.6c0-0.5,0.4-1,1-1c0.8-0.1,0.8,0.7,1,1c0.4,0.6,1.3,0.9,1.9,1c1,0.3,2.1,0.3,3.1,0.3c0-3.4-0.3-11.2,0.3-14.4
		c0.1-1.3,1.9-1.1,1.8,0c0,0.9-0.5,2.9-0.2,14.2C138.2,169.9,139.9,169.7,145.4,168.6"/>
	<path class="st2" d="M170.7,180.8c-1,0.3-2,0.5-2.9,0.8c-2,0.5-4.1,1-6,1.1c-1.8,0-3.6-0.5-4.9-1.8c-0.8-0.9-1.3-1.9-1.7-3.1
		c-0.4-1.1-0.5-2.4-0.8-3.8c-1.1,2.1-2.8,3.9-4.5,5.5c-1,0.9-1.6,1.6-2.4,1.8c-1.2,0.4-2.4,0-2.9-1.6c-0.3-0.8-0.4-1.7-0.3-6.6
		c0-3.6,0.3-7.8,0.4-11.3c0.3-4.6,0.4-6.5,0.7-11c0.1-1.2,1.9-1.1,1.8,0.3c-0.3,3.8-0.5,7.2-0.7,11c-0.3,3.5-0.4,7.7-0.5,11.1
		c0,4.4,0.2,5.8,0.5,6.3c0.5-0.1,1.3-0.9,2-1.4c1.7-1.6,3.2-3.6,4.5-5.7c0.3-0.5,1.1-2.9,1.1-2.9c0.5-1.1,2.1-0.8,2.1,0.4
		c0,2.2,0.2,5.1,0.7,7.3c0.1,0.9,0.5,1.8,1.1,2.4c0.8,1.2,2.1,1.5,3.6,1.6c1.7,0.3,3.9-0.1,5.8-0.3
		C168.7,181.1,169.6,180.9,170.7,180.8"/>
	<path class="st2" d="M241.9,180.8c-1,0.3-2,0.5-2.9,0.8c-2,0.5-4.1,1-6,1.1c-1.8,0-3.6-0.5-4.9-1.8c-0.8-0.9-1.3-1.9-1.7-3.1
		c-0.4-1.1-0.5-2.4-0.8-3.8c-1.1,2.1-2.8,3.9-4.5,5.5c-1,0.9-1.6,1.6-2.4,1.8c-1.2,0.4-2.4,0-2.9-1.6c-0.3-0.8-0.4-1.7-0.3-6.6
		c0-3.6,0.3-7.8,0.3-11.3c0.3-4.6,0.4-6.5,0.7-11c0.1-1.2,1.9-1.1,1.8,0.3c-0.3,3.8-0.5,7.2-0.7,11c-0.3,3.5-0.4,7.7-0.5,11.1
		c0,4.4,0.2,5.8,0.5,6.3c0.5-0.1,1.3-0.9,2-1.4c1.7-1.6,3.2-3.6,4.5-5.7c0.3-0.5,1.1-2.9,1.1-2.9c0.5-1.1,2.1-0.8,2.1,0.4
		c0,2.2,0.2,5.1,0.7,7.3c0.1,0.9,0.5,1.8,1.1,2.4c0.8,1.2,2.1,1.5,3.6,1.6c1.7,0.3,3.9-0.1,5.9-0.3
		C239.9,181.1,240.9,180.9,241.9,180.8"/>
	<path class="st2" d="M248.4,180.4c-1.7,1.5-4,2.4-6.3,2.1c-1.3-0.1-2.4-0.5-3.2-1.6c-1-0.9-1.2-2.2-1-3.5c0.3-2.3,1.7-4.5,3.1-5.9
		c0.6-0.6,1.1-1.1,1.7-1.4c0.7-0.4,1.3,0,1.5,0.6c0.6-0.4,1.3-0.3,1.9,0c1,0.4,2.1,1.2,2.8,2.1c0.8,1,1.4,2.1,1.4,3.3
		C250.5,177.8,249.6,179.3,248.4,180.4 M248.4,176.2c-0.1-0.8-0.5-1.6-1-2.2c-0.4-0.7-1.1-1.3-1.8-1.6c-0.3-0.2-0.5-0.2-0.6-0.2
		c0,0.2-0.5,1-1.3,0.5c-0.3-0.3-0.4-0.3-0.5-0.8c-0.7,0.7-1.3,1.5-2,2.3c-0.5,0.9-1.1,2.2-1.3,3.4c-0.1,0.8,0,1.4,0.5,2.2
		c0.4,0.7,1.2,1,2,1.2c1.4,0.1,3.5-0.5,5-1.8C248,178.5,248.6,177.3,248.4,176.2"/>
	<path class="st2" d="M264.3,180.8c-1.8,0.8-4.4,1.8-6.3,1.9c-1,0.2-2.1,0.2-3.1-0.3c-0.5-0.4-0.9-1-1.3-2.4
		c-0.5-2.9-0.5-8.4-0.4-11.3c0-3.4,0.4-10,0.9-13.3c0.3-1.1,2-0.8,2,0.4c-0.7,2.9-1,10-1,13.1c-0.1,2.6-0.3,8.1,0.3,10.7
		c0.3,1.1,0.3,1.1,1.5,1.4c1,0.2,2.4,0.2,3,0C261.7,181.1,263.3,180.9,264.3,180.8"/>
	<path class="st2" d="M270.9,181.1c-0.8,0.5-1.9,0.9-2.6,1.1c-0.9,0.3-2.7,1-4.2,0.5c-1-0.3-1.4-1.1-1.8-2.2
		c-0.4-1.6-0.4-5.4-0.4-7.6c0-1.3,1.9-1.5,1.9-0.3c-0.1,2.2-0.1,5.9,0.3,7.3c0.3,0.5,0.4,0.9,1,1.1c0.5,0.5,2.2,0.3,3.1,0.2
		C269.1,181.2,270.2,181.1,270.9,181.1 M264.6,163c0.1-0.5,0.8-0.8,1.3-0.7c0.5,0.2,0.9,0.7,0.8,1.2c0,0.1-0.3,0.5-0.3,0.5
		c-0.2,0.6,0.5,0.6,0.1,1.1c-0.3,0.4-0.6,0.5-1.1,0.3c-0.3-0.3-0.6-0.6-0.9-1C264.4,163.6,264.6,163.1,264.6,163"/>
	<path class="st2" d="M299,180.7c-2.5,0.8-5.8,1.6-8.3,1.8c-1.6,0.1-3.2,0.1-4.5-0.7c-1-0.8-1.6-1.7-2-2.7c-0.9,0.5-1.9,1-3.1,1.4
		c-3.2,1.3-6.8,2-8.2,2c-1.8,0.1-3.6-0.5-3.4-2.4c0-2.4,2.9-5.2,4.7-6.7c1.6-1.1,3.4-2.2,5.1-2.7c1.2-0.4,2.4-0.4,3.4,0.1
		c1,0.5,0.4,2.3-0.8,1.7c-0.5-0.4-1.4-0.3-1.9,0c-1.7,0.3-3.3,1.4-4.6,2.3c-1.3,1.1-4.2,3.7-4.2,5.2c0,0.6,1.1,0.6,1.7,0.6
		c1.3,0,4.7-0.5,7.7-1.7c1-0.5,2.3-1,3.3-1.6c-0.4-1.8-0.5-3.9-0.3-5.7c0.3-2.6,1.3-5.5,2.9-8.1c0.6-1.3,1.7-2.7,3-3.4
		c1.2-0.6,2.3-0.4,3.1,0.4c1.1,1.1,1.4,3.5,1.1,5.2c-0.3,2.9-1.6,5.6-3.4,7.9c-1,1.5-2.6,2.9-4.3,3.9c0.3,1,0.5,1.8,1.3,2.4
		c0.9,0.7,2.4,0.8,3.5,0.8C293,181.1,296.2,180.8,299,180.7 M285.6,176.2c1.3-1,2.4-2.2,3.5-3.4c1.7-2.2,2.8-4.8,2.9-7.1
		c0.2-1.3-0.1-3.1-0.8-3.8c-0.3-0.3-0.5-0.4-1.1-0.2c-0.8,0.4-1.7,1.8-2.2,2.8c-1.2,2.2-2.1,4.8-2.5,7.3
		C285.4,173.5,285.4,174.8,285.6,176.2"/>
	<path class="st2" d="M322.1,180.7c-2.5,0.7-5.5,1.5-8.1,1.6c-2.1,0.2-4.5,0-5.7-1.7c-0.5-0.7-0.9-1.6-0.9-2.5
		c-1,0.8-2.1,1.6-3.3,2.3c-1.3,0.8-2.7,1.4-4.3,1.8c-1.3,0.3-2.6,0.3-3.4-0.7c-1-0.9-0.8-2.4-0.4-3.7c1-1.9,3.1-3.9,4.9-5.2
		c1.6-1.3,4.2-3,6.1-2.9c1.2,0.3,1.8,1.2,1.7,2.3c-0.2,0.8-0.5,1.3-0.8,1.4c-0.7,0.7-1.6-0.3-1-0.9c0-0.2,0.1-0.5,0.1-0.7
		c0-0.4-1.1,0-1.4,0c-1.2,0.5-2.5,1.5-3.6,2.3c-1.4,1.1-3.5,2.9-4.3,4.5c-0.3,0.9-0.2,1.6,0,1.8c0.3,0.3,1.3,0.3,1.7,0.3
		c1.5-0.4,2.8-1,4.1-1.6c1.3-0.8,3.2-2.1,4.3-3.3c0.3-0.8,0.7-1.4,1.1-1.9c0.5-0.8,1-1.3,1.6-1.8c0.5-0.3,1.2-0.3,1.5,0.2
		c0.4,0.3,0.4,0.8,0.1,1.1c-0.5,1-1.1,1.8-2.1,2.6c-0.8,1.6-0.6,3.1-0.3,3.6c0.8,1.3,2.9,1.6,4.4,1.6
		C316.3,181.2,319.7,180.9,322.1,180.7"/>
	<path class="st2" d="M339.7,180.7c-2.5,0.4-6.6,1.3-8.7,2.1c0.3,1.7,0.8,3.3,1.3,5c0.5,1.8,1,3.3,1.7,5c0.7,2.1,1.5,4.7,1.8,7.1
		c0.2,2,0,4.1-1.3,5.7c-1,1.3-2.6,1.8-4.3,1.9c-2.6,0.3-5-0.3-6.7-1.6c-2.1-1.4-3.5-3.7-3.9-6.4c-0.4-2.5,0.2-5,1.2-7.3
		c0.9-2.3,2.4-4.4,4-6c1.3-1.3,2.6-2.4,4.2-3.3c-0.1-1.1-0.3-2.1-0.3-3.1c-1,0.7-2.8,1.6-3.8,2.1c-0.9,0.4-1.9,0.8-3,0.7
		c-0.8,0-1.6-0.3-2.1-1c-1.1-1.1-1.2-3.1-1.2-4.8c0-1.8,0.4-3.7,0.5-5.4c0.3-1.1,2.1-0.9,2,0.3c-0.3,1.5-0.5,3.4-0.7,5.2
		c0,1,0,2.8,0.7,3.6c0.3,0.3,0.5,0.5,0.9,0.5c0.8,0,1.6-0.3,2.3-0.5c1.7-0.7,2.9-1.6,4.3-2.9c0-1.2,0.2-2.3,0.4-3.4
		c0.3-1.2,0.6-2.5,1.4-3.6c0.4-0.5,1-1.3,1.6-1.6c0.7-0.3,1.5-0.3,1.8,0.3c0.3,0.5,0.4,1,0.4,1.7c0,1.3-0.4,2.6-1,3.8
		c-0.8,1.3-1.7,2.5-2.7,3.6c0,1.3,0.1,2.4,0.4,3.8C333,181.1,336.9,180.7,339.7,180.7 M329.2,183.8c-1.3,1-2.5,2-3.5,3.1
		c-1.5,1.8-2.8,3.7-3.4,5.7c-1,2.2-1.3,4.3-1,6.5c0.5,2.2,1.6,4,3.2,5.2c1.5,0.9,3.3,1.4,5.2,1.3c1.3-0.2,2.5-0.5,3.3-1.5
		c0.9-1.1,1-2.9,0.8-4.3c-0.3-2.1-1-4.6-1.7-6.6c-0.5-1.7-1.1-3.3-1.7-5.2C329.9,186.9,329.5,185.4,329.2,183.8 M330.6,175.2
		c1-1.1,1.6-2.4,1.6-3.9C331.3,172.5,330.8,173.8,330.6,175.2"/>
	<path class="st1" d="M194.9,178.2c-1.3,1.4-2.8,2.6-4.3,3.4c-1.6,0.8-3.3,1.2-5.2,1.2c-1.3,0-2.5-0.2-3.7-0.6
		c-1.1-0.4-2.1-0.9-2.9-1.7c-0.8-0.7-1.5-1.6-1.9-2.6c-0.5-1-0.7-2.1-0.7-3.3v-0.1c0-1.9,0.6-3.6,1.8-5c1.2-1.4,3-2.5,5.2-3.4
		c-1-1.2-1.7-2.2-2.2-3.2c-0.5-1-0.7-2-0.7-3.2v-0.1c0-0.9,0.2-1.8,0.6-2.7c0.4-0.8,0.9-1.6,1.6-2.2c0.7-0.6,1.5-1.1,2.4-1.5
		c0.9-0.4,2-0.5,3.2-0.5c1,0,2,0.2,2.8,0.5c0.9,0.3,1.6,0.8,2.2,1.4c0.6,0.6,1.1,1.3,1.5,2.1c0.4,0.8,0.5,1.7,0.5,2.6v0.1
		c0,1.9-0.6,3.4-1.8,4.6c-1.2,1.2-2.9,2.2-5.1,3l6.7,6.8c0.6-0.9,1.3-2,1.8-3c0.6-1.1,1.1-2.2,1.7-3.5l2.7,1.3
		c-0.6,1.4-1.3,2.7-2,3.9c-0.7,1.2-1.4,2.4-2.2,3.4l5.1,5.2l-2.5,1.9L194.9,178.2z M185.6,180c1.4,0,2.7-0.3,3.9-1
		c1.2-0.7,2.3-1.6,3.4-2.8l-7.8-8.1c-1.9,0.7-3.4,1.6-4.3,2.7c-0.9,1.1-1.3,2.3-1.3,3.5v0.1c0,0.8,0.1,1.5,0.4,2.2
		c0.3,0.7,0.7,1.3,1.3,1.8c0.5,0.5,1.2,0.9,1.9,1.2C183.9,179.9,184.7,180,185.6,180 M186.4,165c1.9-0.6,3.3-1.4,4.2-2.3
		c0.9-0.9,1.4-2,1.4-3.2v-0.1c0-1.2-0.4-2.1-1.2-2.9c-0.8-0.8-1.8-1.1-3-1.1c-1.3,0-2.4,0.4-3.2,1.2c-0.8,0.8-1.2,1.8-1.2,3v0.1
		c0,0.4,0.1,0.8,0.1,1.2c0.1,0.4,0.3,0.8,0.5,1.2c0.2,0.4,0.5,0.9,0.9,1.3C185.4,163.9,185.9,164.5,186.4,165"/>
</g>
</svg>
