<?xml version="1.0" encoding="utf-8"?>
<!-- Generator: Adobe Illustrator 16.0.0, SVG Export Plug-In . SVG Version: 6.00 Build 0)  -->
<!DOCTYPE svg PUBLIC "-//W3C//DTD SVG 1.1//EN" "http://www.w3.org/Graphics/SVG/1.1/DTD/svg11.dtd">
<svg version="1.1" id="Layer_1" xmlns="http://www.w3.org/2000/svg" xmlns:xlink="http://www.w3.org/1999/xlink" x="0px" y="0px"
	 width="612px" height="792px" viewBox="0 0 612 792" style="enable-background:new 0 0 612 792;" xml:space="preserve">
<style type="text/css">
<![CDATA[
	.st0{fill:#5BB7B2;}
	.st1{fill:#D0202F;}
]]>
</style>
<g>
	<g>
		<g>
			<path class="st1" d="M91,300.4c0-67.3,31-127.5,79.4-167.2c-31.7,33.7-51.2,78.8-51.2,128.7c0,103.6,83.9,187.5,187.5,187.5
				c103.6,0,187.5-83.9,187.5-187.5c0-49.8-19.5-95.2-51.2-128.7c48.5,39.5,79.4,99.7,79.4,167.2c0,119.1-96.5,215.7-215.7,215.7
				C187.6,516.1,91,419.6,91,300.4z M347,3l-15.4,47.3l40.3,29.4h-49.8L306.7,127l-15.4-47.3h-49.8l40.3-29.4L266.4,3l40.3,29.2
				L347,3z"/>
			<path class="st0" d="M266,429.9c-2.9,3.5-7.8,9.1-7.8,9.1c205.7-140.5,80-351.7,80-351.7s1.4,4.1,1.6,4.9c0,0,38.3,130-6.2,176
				c0,0-3.9,4.7-13.6-0.2c-9.1-4.7-62.9-33.5-93.8,19.5c0,0,51.8-36,77.3,17.5C303.4,304.9,334.1,352,266,429.9z M289.6,223
				c1.4-14.6,14.2-25.5,28.8-24.1c14.6,1.4,25.5,14.2,24.1,28.8c-1.4,14.6-14.2,25.5-28.8,24.1C299.1,250.4,288.2,237.6,289.6,223z"
				/>
		</g>
		<g>
			<path class="st0" d="M79.5,655.5v-40.3c0-1.4,0.4-2.3,1.4-3.3c1-1,1.9-1.6,3.3-1.6H93l8.8,34.5l8.8-34.5h13.4v45.2h-8.4v-36.4
				l-9,36.4h-9.3l-9.1-36.4v36.4H79.5z"/>
			<path class="st0" d="M128,620.8h4.7c1.2,0,2.1,0.4,3.1,1.4c0.8,1,1.4,1.9,1.4,3.1v30.4h-9v-34.8H128z M128,610.5h4.7
				c1.2,0,2.1,0.4,3.1,1.4c0.8,0.8,1.4,1.9,1.4,3.1v2.7h-9v-7.2H128z"/>
			<path class="st0" d="M169.6,655.5h-4.5c-1.4,0-2.3-0.4-3.1-1.2s-1.2-1.9-1.2-3.3v-17.7c0-2.1-0.6-3.7-1.9-4.7
				c-1.2-1-2.5-1.4-4.1-1.4c-1.6,0-2.9,0.6-4.1,1.4c-1.2,1-1.8,2.5-1.8,4.7v22.2h-9V635c0-5.8,1.6-9.9,4.5-11.9
				c3.1-1.9,6.4-3.1,10.1-3.3c3.7,0,7.2,1,10.3,2.9c3.1,1.9,4.7,6,4.7,12.3V655.5L169.6,655.5z"/>
			<path class="st0" d="M173.7,620.8h4.7c1.2,0,2.1,0.4,3.1,1.4c0.8,1,1.4,1.9,1.4,3.1v30.4h-9v-34.8H173.7z M173.7,610.5h4.7
				c1.2,0,2.1,0.4,3.1,1.4c0.8,0.8,1.4,1.9,1.4,3.1v2.7h-9v-7.2H173.7z"/>
			<path class="st0" d="M185.6,644h8.8c0,1.8,0.8,3.1,1.9,3.9c1.4,0.8,2.9,1.4,5.1,1.4c1.6,0,2.9-0.4,3.9-1c1-0.6,1.6-1.4,1.6-2.5
				c0-1.6-1.8-2.7-5.4-3.5c-1.6-0.2-2.7-0.6-3.5-0.8c-4.5-1.2-7.6-2.5-9.1-4.1c-1.8-1.6-2.5-3.7-2.5-6.2c0-3.3,1.2-6,3.7-8.2
				c2.5-1.9,5.8-2.9,9.9-2.9c4.5,0,8,1,10.5,2.9c2.5,2.1,3.7,5.1,3.9,8.6h-5.4c-1.6,0-2.9-0.8-3.7-2.1c-0.4-0.4-0.8-0.8-1-1
				c-1-0.8-2.3-1.2-4.3-1.2c-1.8,0-2.9,0.2-3.9,0.8c-0.8,0.6-1.2,1.4-1.2,2.3c0,1.4,2.1,2.5,6.6,3.5c0.6,0.2,1,0.4,1.4,0.4
				c0.4,0,0.8,0.2,1.2,0.2c4.3,1.2,7.4,2.5,9.1,3.9c1.6,1.6,2.3,3.7,2.3,6.2c0,3.9-1.4,6.8-4.1,9c-2.5,1.9-6.4,2.9-11.5,2.9
				c-4.9,0-8.6-1-10.9-2.9c-2.5-1.9-3.7-4.9-3.7-8.8V644H185.6z"/>
			<path class="st0" d="M232.9,655.5c-2.7,0.2-5.8,0.2-9.1-0.2c-3.3-0.2-4.9-2.3-4.9-6.4v-38.5h4.7c1.2,0,2.1,0.4,2.9,1.4
				c0.8,0.8,1.4,1.9,1.4,3.1v5.8h5.3v1.8c0,1.4-0.4,2.3-1.4,3.3c-0.8,0.8-1.9,1.2-3.1,1.2h-1v19.5c0,1.6,0.8,2.1,2.5,2.1h2.7V655.5
				L232.9,655.5z"/>
			<path class="st0" d="M235.6,655.5v-16.9c0-3.3,0.4-6.2,1.4-8.6c1-2.3,2.3-4.3,4.1-5.6c1.6-1.4,3.5-2.3,5.6-2.9
				c2.1-0.6,4.5-1,6.8-1c0.2,0,0.4,0,0.6,0c0.2,0,0.4,0,0.6,0v9.3h-2.9c-2.5,0-4.3,0.6-5.4,1.8c-1.2,1.2-1.8,3.1-1.8,5.8v17.9h-9
				V655.5z"/>
			<path class="st0" d="M261.9,667.9v-7.2h2.3c1.8,0,3.1-0.4,3.9-1.4c1-0.8,1.2-2.1,0.6-3.9l-11.9-34.6h9.9l6.8,24.5l6-21.4
				c0.6-2.1,1.9-3.1,4.1-3.1h6.2l-13,39.7c-1,2.9-2.3,4.9-3.9,6.2c-1.6,1-4.1,1.6-7.6,1.6c-0.2,0-0.6,0-1,0c-0.4,0-0.6,0-1,0
				c-0.2,0-0.6-0.2-1-0.2C262.5,667.9,262.3,667.9,261.9,667.9z"/>
			<path class="st0" d="M307.3,652.4c-1.8-1.6-3.1-3.7-3.9-6.2c-0.8-2.7-1.2-5.5-1.2-8.4c0-2.3,0.4-4.7,1-7c0.8-2.3,1.8-4.3,3.1-5.8
				c2.1-2.5,5.1-4.1,8.6-4.7c3.5-0.6,6.6-0.2,9.5,0.8c3.3,1.4,5.6,3.5,7.2,6.8c1.4,2.9,2.1,6.2,2.1,10.1c0,2.7-0.4,5.3-1,7.2
				c-0.6,1.9-1.4,3.7-2.3,5.1c-2.1,2.9-4.7,4.7-7.8,5.5c-2.7,0.8-5.6,0.8-8.6,0.2C311.4,655.1,309,653.9,307.3,652.4z M313.5,629.4
				c-1.8,1.9-2.5,5.1-2.3,9c0.2,3.9,1,6.6,2.1,8.2c0.6,0.8,1.4,1.4,2.7,1.8c1.4,0.4,2.5,0.4,3.9,0.2c1.4-0.4,2.5-1.4,3.5-2.9
				c1-1.6,1.6-4.1,1.8-7.6c0-3.1-0.6-5.5-1.6-7c-1-1.6-1.9-2.5-3.3-2.9c-1.4-0.4-2.5-0.4-3.9,0C315.1,628.2,314.1,628.8,313.5,629.4
				z"/>
			<path class="st0" d="M336.5,655.5v-35.8c0-3.1,0.8-5.4,2.3-7c1.6-1.6,4.1-2.1,7.6-2.1c0.8,0,1.6,0,2.1,0.2c1,0,1.8,0,2.1,0.2v7.2
				h-2.3c-1.2,0-2.1,0.2-2.5,0.6c-0.4,0.4-0.6,1-0.6,2.1v2.3h5.5v1.9c0,1.4-0.4,2.3-1.4,3.3c-0.8,0.8-1.8,1.2-2.9,1.2H345v26.3h-8.6
				V655.5z"/>
			<path class="st0" d="M367.2,655.5v-40.3c0-1.4,0.4-2.3,1.4-3.3c1-1,2.1-1.4,3.3-1.4h4.5v16.7h18.1v-16.7h9.2v45h-9.2v-19.9h-18.1
				v20h-9.1V655.5z"/>
			<path class="st0" d="M431.1,644.8h6.4c-1,3.7-2.7,6.4-5.5,8.4c-2.7,1.9-6,2.9-9.9,2.9c-4.9,0-8.6-1.6-11.3-4.9
				c-2.7-3.1-4.1-7.6-4.1-13.4c0-5.6,1.4-9.9,3.9-13c2.7-3.3,6.4-4.9,11.3-4.9c5.1,0,9.2,1.6,11.9,4.7c2.7,3.3,4.1,7.8,4.1,13.4
				c0,0.4,0,0.6,0,1c0,0.2,0,0.4,0,0.6c0,0.4,0,0.8-0.2,1h-22.2c0,2.7,0.8,4.7,1.9,6c1.2,1.4,2.7,2.1,5.1,2.1c1.4,0,2.7-0.4,3.7-1
				c0.2,0,0.4-0.2,0.6-0.4c0.2-0.2,0.6-0.6,0.8-0.8c0-0.2,0.4-0.6,1-1C429.3,645,430.1,644.8,431.1,644.8z M415.9,634.7h13
				c-0.2-2.3-0.8-4.1-1.8-5.3c-1.2-1.2-2.7-1.8-4.7-1.8c-1.9,0-3.5,0.6-4.7,1.8C416.5,630.6,415.9,632.3,415.9,634.7z"/>
			<path class="st0" d="M461,638c-1.2,0.6-2.9,1.2-5.1,1.8c-1.9,0.4-2.9,0.6-2.9,0.6c-1.6,0.4-2.7,1-3.3,1.8c-0.6,1-1,1.9-1,2.9
				c0,1.4,0.4,2.3,1.2,3.1c0.8,0.8,1.9,1,3.3,1c2.3,0,4.3-0.8,5.6-2.1c1.4-1.4,2.1-3.3,2.1-5.8V638z M463.2,654.1
				c-1.8,1-3.7,1.6-5.8,1.8c-1.9,0.2-3.7,0.4-5.3,0.4c-3.1,0-5.8-0.8-8-2.5c-2.3-1.8-3.5-4.7-3.5-8.6c0-3.7,1-6.2,3.1-7.8
				c2.1-1.6,4.9-2.5,8-3.1c0.4,0,1,0,1.6-0.2c0.6-0.2,1.4-0.4,1.9-0.4c3.7-0.6,5.6-1.8,5.6-3.3c0-1.4-0.6-2.1-1.9-2.5
				c-1.4-0.4-2.5-0.6-3.5-0.6c-1.2,0-2.3,0.2-3.1,0.6c-1,0.4-1.6,1-2.1,1.9h-8.6c0.4-2.7,1.6-4.9,3.5-6.6c2.3-1.9,5.6-2.9,9.9-2.9
				c4.9,0,8.4,0.8,10.7,2.5c2.5,1.8,3.7,4.3,3.7,7.4v11.9c0,3.5-0.6,6.2-1.9,8.2C466.3,651.8,464.9,653.3,463.2,654.1z"/>
			<path class="st0" d="M472.3,610.5h4.7c1.2,0,2.1,0.4,3.1,1.4c0.8,0.8,1.4,1.8,1.4,2.9v40.7h-9v-45H472.3z"/>
			<path class="st0" d="M499.4,655.5c-2.7,0.2-5.8,0.2-9.1-0.2c-3.3-0.2-4.9-2.3-4.9-6.4v-38.5h4.7c1.2,0,2.1,0.4,2.9,1.4
				c0.8,0.8,1.4,1.9,1.4,3.1v5.8h5.3v1.8c0,1.4-0.4,2.3-1.4,3.3c-0.8,0.8-1.9,1.2-3.1,1.2h-1v19.5c0,1.6,0.8,2.1,2.5,2.1h2.7V655.5
				L499.4,655.5z"/>
			<path class="st0" d="M523.3,630.6c-1.4-1.8-3.1-2.7-5.3-2.7c-2.3,0-4.3,0.8-5.4,2.5c-1.4,1.7-1.9,4.1-1.9,7.2v17.9h-8.8v-45h4.3
				c1.2,0,2.1,0.4,3.1,1.4c0.8,0.8,1.4,1.9,1.4,3.1v10.3c1.6-2.5,3.7-4.3,6.4-5.1c2.7-0.8,5.5-0.6,8,0.6c2.3,1,4.5,2.7,6,5.1
				c1.6,2.3,2.3,5.5,2.3,9.3v20.2h-8.6v-17.9c0-1.4-0.2-2.5-0.4-3.5C524.7,632.9,524.1,631.7,523.3,630.6z"/>
		</g>
		<g>
			<path class="st0" d="M127.8,587.7v-28.6c0-1,0.4-1.8,1-2.3c0.6-0.6,1.4-1,2.3-1H143c3.3,0,5.8,0.8,7.6,2.1
				c1.8,1.6,2.5,3.9,2.5,6.8c0,1.9-0.4,3.7-1.4,4.9c-0.8,1.2-1.9,2.1-3.5,2.7c1.4,0.6,2.3,1.2,2.9,2.1c0.6,1,1,2.5,1,4.7l0.2,3.9
				c0,0.4,0,0.8,0,1.2c0,0.4,0,0.8,0,1.2c0.2,1.2,0.6,1.8,1.2,2.1h-7c-0.4-0.6-0.4-1.4-0.6-1.9c-0.2-1-0.2-1.8-0.2-2.1V580
				c-0.2-1.9-0.4-3.1-1.2-3.9c-0.6-0.6-1.8-1-3.5-1h-6.8v12.5h-6.4V587.7z M134.2,569.6h7.6c1.6,0,2.9-0.4,3.7-1
				c0.8-0.6,1.2-1.8,1.2-3.1s-0.4-2.5-1.2-3.1c-0.8-0.8-1.8-1.2-3.3-1.2h-8V569.6L134.2,569.6z"/>
			<path class="st0" d="M173,580.2h4.5c-0.6,2.5-1.9,4.7-3.9,6s-4.3,2.1-7,2.1c-3.5,0-6.2-1.2-8-3.5c-1.9-2.1-2.9-5.4-2.9-9.5
				c0-3.9,1-7,2.7-9.3c1.9-2.3,4.7-3.5,8-3.5c3.7,0,6.4,1.2,8.4,3.3c1.9,2.3,2.9,5.5,2.9,9.5c0,0.2,0,0.4,0,0.6c0,0.2,0,0.4,0,0.4
				c0,0.4,0,0.6,0,0.6h-15.8c0,1.9,0.6,3.3,1.4,4.3c0.8,1,1.9,1.6,3.5,1.6c1,0,1.9-0.2,2.7-0.6c0.2,0,0.4-0.2,0.4-0.2
				c0.2-0.2,0.4-0.4,0.6-0.6c0-0.2,0.2-0.4,0.6-0.8C171.6,580.2,172.2,580.2,173,580.2z M162.1,572.8h9.1c-0.2-1.8-0.6-2.9-1.4-3.7
				c-0.8-0.8-1.9-1.4-3.3-1.4c-1.4,0-2.3,0.4-3.3,1.4C162.6,570,162.1,571.2,162.1,572.8z"/>
			<path class="st0" d="M186.4,593.6c0,0.8-0.4,1.6-1,2.1c-0.6,0.6-1.4,1-2.1,1h-3.1v-23.2c0-4.3,1.2-7.2,3.7-8.8
				c2.5-1.6,5.3-2.3,8-2.3c1.6,0,3.1,0.4,4.5,1c1.6,0.6,2.7,1.4,3.7,2.5c1.8,2.3,2.7,5.5,2.7,9.3c0,3.9-1,7-2.7,9.5
				c-1.8,2.3-4.1,3.5-7,3.5c-1.6,0-2.9-0.2-3.9-0.8c-1.2-0.6-2.1-1.6-2.9-2.9v9H186.4z M196.7,575.5c0-2.3-0.4-4.3-1.4-5.6
				c-1-1.4-2.1-1.9-3.9-1.9c-1.6,0-2.9,0.6-3.9,1.9c-0.8,1.2-1.4,3.1-1.4,5.6c0,2.3,0.4,4.1,1.4,5.3c1,1.4,2.1,1.9,3.9,1.9
				c1.6,0,2.7-0.6,3.7-1.9C196.3,579.4,196.7,577.6,196.7,575.5z"/>
			<path class="st0" d="M226.5,563v14.4c0,4.5-1.2,7.2-3.3,8.6c-2.1,1.4-4.7,2.1-7.4,2.1c-2.5-0.2-5.1-0.8-7.2-2.1
				c-2.1-1.4-3.1-4.1-3.1-8.4v-14.4h6.4V579c0,1.6,0.4,2.5,1.4,3.3c0.8,0.8,1.8,1,2.9,1c1.2,0,2.1-0.4,2.9-1c1-0.6,1.4-1.8,1.4-3.3
				v-12.7c0-0.8,0.2-1.6,0.8-2.1c0.6-0.6,1.4-1,2.3-1h2.9V563z"/>
			<path class="st0" d="M235.4,558.7v7.4c0.6-1.2,1.6-2.1,2.9-2.9c1.2-0.6,2.3-1,3.9-1c2.9,0,5.3,1.2,7,3.7c1.8,2.3,2.7,5.5,2.7,9.3
				c0,3.9-1,7-2.7,9.3c-1,1.2-2.1,1.9-3.7,2.5c-1.6,0.6-3.1,0.8-4.5,0.8c-2.9,0-5.6-0.8-8-2.3c-2.5-1.6-3.7-4.5-3.7-9v-21.2h3.1
				c0.8,0,1.6,0.4,2.1,1C235.2,557.2,235.4,558,235.4,558.7z M245.8,575.1c0-2.1-0.4-3.9-1.4-5.3c-1-1.4-2.1-1.9-3.7-1.9
				c-1.8,0-2.9,0.6-3.9,1.9c-1,1.4-1.4,3.1-1.4,5.3c0,2.5,0.4,4.5,1.2,5.6c1,1.4,2.1,1.9,3.9,1.9c1.8,0,2.9-0.6,3.9-1.9
				C245.4,579.6,245.8,577.6,245.8,575.1z"/>
			<path class="st0" d="M254.9,555.8h3.3c0.8,0,1.6,0.4,2.1,1c0.6,0.6,1,1.4,1,2.1v28.8h-6.4V555.8L254.9,555.8z"/>
			<path class="st0" d="M264.2,563h3.3c0.8,0,1.6,0.4,2.1,1c0.6,0.6,1,1.4,1,2.1v21.6h-6.4V563L264.2,563z M264.2,555.8h3.3
				c0.8,0,1.6,0.4,2.1,1c0.6,0.6,1,1.4,1,2.1v1.9h-6.4V555.8L264.2,555.8z"/>
			<path class="st0" d="M290.5,580.2h4.5c-0.6,2.5-1.9,4.7-3.9,6s-4.3,2.1-7,2.1c-3.5,0-6-1.2-8-3.5c-1.9-2.1-2.9-5.4-2.9-9.5
				c0-3.9,1-7,2.7-9.3c1.9-2.3,4.7-3.5,8-3.5c3.7,0,6.4,1.2,8.4,3.3c1.2,1.4,1.9,2.9,2.3,4.7h-6.4c-0.4-0.6-0.6-1.2-1-1.4
				c-0.8-0.8-1.9-1.4-3.3-1.4c-1.4,0-2.3,0.4-3.3,1.4c-1.2,1.2-1.6,3.3-1.6,6c0,2.9,0.6,4.9,1.6,6c0.8,1,1.9,1.6,3.5,1.6
				c1,0,1.9-0.2,2.5-0.6c0.2,0,0.4-0.2,0.4-0.2c0.2-0.2,0.4-0.4,0.6-0.6s0.4-0.4,0.8-0.8C289.2,580.2,289.7,580.2,290.5,580.2z"/>
			<path class="st0" d="M309.8,585.4c-1.4-1.2-2.1-2.5-2.7-4.5c-0.6-1.9-0.8-3.9-0.8-6c0-1.8,0.2-3.3,0.6-5.1
				c0.4-1.8,1.2-3.1,2.1-4.1c1.6-1.9,3.5-2.9,6-3.3c2.5-0.4,4.7-0.2,6.6,0.6c2.3,1,3.9,2.5,5.1,4.9c1,1.9,1.6,4.5,1.6,7.2
				c0,1.9-0.2,3.7-0.6,5.1c-0.4,1.4-1,2.7-1.6,3.7c-1.4,1.9-3.3,3.3-5.5,3.9c-1.9,0.6-4.1,0.6-6,0
				C312.7,587.4,311.2,586.6,309.8,585.4z M314.3,569.1c-1.4,1.4-1.8,3.5-1.8,6.4c0.2,2.7,0.6,4.7,1.6,5.8c0.4,0.6,1,1,1.9,1.4
				c1,0.4,1.8,0.4,2.7,0c1-0.4,1.8-1,2.5-2.1c0.8-1.2,1.2-2.9,1.2-5.4c0-2.1-0.4-3.9-1.2-5.1c-0.6-1.2-1.4-1.8-2.3-2.1
				c-1-0.4-1.8-0.4-2.7,0C315.2,568.3,314.7,568.7,314.3,569.1z"/>
			<path class="st0" d="M331,587.7v-25.5c0-2.1,0.6-3.9,1.8-5.1c1.2-1,2.9-1.6,5.3-1.6c0.6,0,1.2,0,1.4,0c0.6,0,1.2,0,1.6,0v5.1
				h-1.6c-0.8,0-1.4,0.2-1.8,0.4c-0.4,0.2-0.4,0.8-0.4,1.6v1.8h3.9v1.4c0,1-0.4,1.8-1,2.3c-0.6,0.6-1.4,0.8-2.1,0.8h-1v18.7h-6
				V587.7z"/>
			<path class="st0" d="M361.2,587.7v-26.3H352v-2.3c0-1,0.4-1.8,1-2.3c0.6-0.6,1.4-1,2.3-1H377v5.6h-9.1v26.3H361.2L361.2,587.7z"
				/>
			<path class="st0" d="M399.9,563v14.4c0,4.5-1.2,7.2-3.3,8.6c-2.1,1.4-4.7,2.1-7.4,2.1c-2.5-0.2-5.1-0.8-7.2-2.1
				c-2.1-1.4-3.1-4.1-3.1-8.4v-14.4h6.4V579c0,1.6,0.4,2.5,1.4,3.3c0.8,0.8,1.8,1,2.9,1c1.2,0,2.1-0.4,2.9-1c1-0.6,1.4-1.8,1.4-3.3
				v-12.7c0-0.8,0.2-1.6,0.8-2.1s1.4-1,2.3-1h2.9V563z"/>
			<path class="st0" d="M402.3,587.7v-12.1c0-2.3,0.4-4.5,1-6c0.8-1.8,1.8-2.9,2.9-3.9c1.2-1,2.5-1.6,3.9-1.9
				c1.6-0.4,3.1-0.6,4.9-0.6c0.2,0,0.2,0,0.4,0c0.2,0,0.4,0,0.4,0v6.6h-2.1c-1.8,0-3.1,0.4-3.9,1.4c-0.8,0.8-1.4,2.1-1.4,4.1v12.7
				h-6V587.7z"/>
			<path class="st0" d="M424.3,563v9.1l7.8-9.1h7.6l-8.6,9.5l8.8,15.2h-7.6l-4.5-8.4c-1-1.8-1.8-2.3-2.3-2.1c-0.6,0.2-1,0.6-1,1.2
				v3.5v6H418v-32.1h3.3c0.8,0,1.6,0.4,2.1,1c0.6,0.6,1,1.4,1,2.1v4.1H424.3z"/>
			<path class="st0" d="M456.8,580.2h4.5c-0.6,2.5-1.9,4.7-3.9,6c-1.9,1.4-4.3,2.1-7,2.1c-3.5,0-6-1.2-8-3.5
				c-1.9-2.1-2.9-5.4-2.9-9.5c0-3.9,1-7,2.7-9.3c1.9-2.3,4.7-3.5,8-3.5c3.7,0,6.4,1.2,8.4,3.3c1.9,2.3,2.9,5.5,2.9,9.5
				c0,0.2,0,0.4,0,0.6c0,0.2,0,0.4,0,0.4c0,0.4,0,0.6,0,0.6h-15.6c0,1.9,0.6,3.3,1.4,4.3c0.8,1,1.9,1.6,3.5,1.6c1,0,1.9-0.2,2.5-0.6
				c0.2,0,0.4-0.2,0.4-0.2c0.2-0.2,0.4-0.4,0.6-0.6c0-0.2,0.2-0.4,0.6-0.8C455.4,580.2,456,580.2,456.8,580.2z M445.9,572.8h9.1
				c-0.2-1.8-0.6-2.9-1.4-3.7c-0.8-0.8-1.9-1.4-3.3-1.4c-1.4,0-2.3,0.4-3.3,1.4C446.3,570,445.9,571.2,445.9,572.8z"/>
			<path class="st0" d="M465.5,596.5v-5.1h1.8c1.2,0,2.1-0.4,2.7-1c0.8-0.6,1-1.6,0.4-2.7l-8.4-24.5h7l4.9,17.5l4.3-15.2
				c0.4-1.6,1.4-2.1,2.9-2.1h4.3l-9.2,28c-0.8,1.9-1.6,3.5-2.7,4.3c-1.2,0.8-2.9,1.2-5.3,1.2c-0.2,0-0.4,0-0.6,0c-0.2,0-0.4,0-0.6,0
				c-0.2,0-0.4-0.2-0.8-0.2C465.9,596.5,465.7,596.5,465.5,596.5z"/>
		</g>
	</g>
	<g>
		<path class="st1" d="M95.9,671.8h7.4l16.5,45.7h-9.9l-3.1-9.3H89.1l-2.9,9.3h-9.9l15.2-42.6C92.2,672.8,93.5,671.8,95.9,671.8z
			 M98,681l-6.4,19.5h12.7L98,681z"/>
		<path class="st1" d="M151.9,717.6h-4.7c-1.4,0-2.3-0.4-3.3-1.2c-0.8-0.8-1.2-1.9-1.2-3.3V695c0-2.1-0.6-3.7-1.9-4.7
			c-1.4-1-2.7-1.6-4.3-1.6c-1.6,0-2.9,0.6-4.3,1.6c-1.4,1-1.9,2.5-1.9,4.7v22.6H121v-20.6c0-6,1.6-10.1,4.7-12.1
			c3.1-1.9,6.6-3.1,10.5-3.3c3.9,0,7.4,1,10.7,3.1c3.3,1.9,4.9,6.2,4.9,12.3v20.6H151.9z"/>
		<path class="st1" d="M168.3,717.6c-2.9,0.2-6,0.2-9.5-0.2c-3.5-0.4-5.1-2.5-5.1-6.4v-39.1h4.9c1.2,0,2.1,0.4,3.1,1.4
			c1,1,1.4,1.9,1.4,3.1v6h5.5v1.9c0,1.4-0.4,2.3-1.4,3.3c-1,0.8-1.9,1.2-3.1,1.2h-1v19.7c0,1.6,1,2.3,2.7,2.3h2.7v6.8H168.3z"/>
		<path class="st1" d="M191.8,716c-1.9,1-3.9,1.6-5.8,1.8c-2.1,0.2-3.9,0.4-5.5,0.4c-3.1,0-6-0.8-8.4-2.5c-2.3-1.8-3.5-4.7-3.5-8.6
			c0-3.7,1.2-6.4,3.3-8c2.1-1.6,4.9-2.7,8.4-3.1c0.4,0,1,0,1.6-0.2c0.6-0.2,1.4-0.2,2.1-0.4c3.9-0.6,5.8-1.8,5.8-3.5
			c0-1.4-0.8-2.1-2.1-2.5c-1.4-0.4-2.7-0.6-3.7-0.6c-1.2,0-2.3,0.2-3.3,0.6c-1,0.4-1.8,1-2.1,1.9h-9.1c0.4-2.7,1.6-5.1,3.7-6.8
			c2.3-1.9,5.8-3.1,10.3-3.1c4.9,0,8.8,0.8,11.1,2.5c2.5,1.8,3.9,4.3,3.9,7.4v12.1c0,3.5-0.6,6.2-1.9,8.4
			C195.1,713.7,193.6,715.2,191.8,716z M189.7,699.7c-1.2,0.6-2.9,1.2-5.3,1.8l-3.1,0.6c-1.6,0.4-2.7,1-3.5,1.8c-0.6,1-1,1.9-1,2.9
			c0,1.4,0.4,2.3,1.2,3.1c0.8,0.8,1.9,1,3.5,1c2.5,0,4.5-0.8,5.8-2.1c1.4-1.4,2.1-3.3,2.1-5.8v-3.1H189.7z"/>
		<path class="st1" d="M199.4,671.8h4.9c1.2,0,2.3,0.4,3.1,1.2c1,0.8,1.4,1.9,1.4,3.1v41.3h-9.3V671.8z"/>
		<path class="st1" d="M215,730v-7.4h2.5c1.8,0,3.1-0.4,4.1-1.2c1-0.8,1.2-2.1,0.6-4.1l-12.3-35.2h10.3l7.2,24.9l6.2-21.8
			c0.6-2.1,1.9-3.1,4.3-3.1h6.4l-13.6,40.3c-1,2.9-2.3,5.1-3.9,6.2c-1.6,1-4.3,1.6-7.8,1.6c-0.2,0-0.6,0-1,0s-0.6,0-1,0
			c-0.2,0-0.6-0.2-1-0.2C215.6,730,215.4,730,215,730z"/>
		<path class="st1" d="M268.1,716c-1.9,1-3.9,1.6-5.8,1.8c-2.1,0.2-3.9,0.4-5.4,0.4c-3.1,0-6-0.8-8.4-2.5c-2.3-1.8-3.5-4.7-3.5-8.6
			c0-3.7,1.2-6.4,3.3-8c2.1-1.6,4.9-2.7,8.4-3.1c0.4,0,1,0,1.6-0.2c0.6-0.2,1.4-0.2,2.1-0.4c3.9-0.6,5.8-1.8,5.8-3.5
			c0-1.4-0.8-2.1-2.1-2.5c-1.4-0.4-2.7-0.6-3.7-0.6c-1.2,0-2.3,0.2-3.3,0.6c-1,0.4-1.8,1-2.1,1.9h-9c0.4-2.7,1.6-5.1,3.7-6.8
			c2.3-1.9,5.8-3.1,10.3-3.1c4.9,0,8.8,0.8,11.1,2.5c2.5,1.8,3.9,4.3,3.9,7.4v12.1c0,3.5-0.6,6.2-1.9,8.4
			C271.6,713.9,270.1,715.2,268.1,716z M266.2,699.7c-1.2,0.6-2.9,1.2-5.3,1.8l-3.1,0.6c-1.6,0.4-2.7,1-3.5,1.8c-0.6,1-1,1.9-1,2.9
			c0,1.4,0.4,2.3,1.2,3.1c0.8,0.8,1.9,1,3.5,1c2.5,0,4.5-0.8,5.8-2.1c1.4-1.4,2.1-3.3,2.1-5.8v-3.1H266.2z"/>
		<path class="st1" d="M299.3,701.2v16.4h-9.3v-40.9c0-1.4,0.4-2.5,1.4-3.3c1-1,2.1-1.4,3.3-1.4h15.6c4.9,0,8.6,1.2,10.9,3.7
			c2.5,2.5,3.7,6.2,3.7,11.1c0,4.7-1.2,8.2-3.5,10.9c-2.3,2.5-5.8,3.7-10.3,3.7h-11.7V701.2z M299.3,692.9h9.1
			c2.5,0,4.3-0.6,5.3-1.6c1.2-1,1.8-2.7,1.8-5.1c0-1.9-0.6-3.7-1.6-4.9c-1.2-1-2.9-1.6-4.9-1.6h-9.7V692.9L299.3,692.9z"/>
		<path class="st1" d="M325.6,717.6v-17.1c0-3.5,0.6-6.4,1.6-8.8c1-2.3,2.3-4.3,4.1-5.6c1.8-1.4,3.7-2.3,5.8-2.9c2.3-0.6,4.7-1,7-1
			c0.2,0,0.4,0,0.6,0c0.2,0,0.6,0,0.6,0v9.3h-3.1c-2.5,0-4.5,0.6-5.6,1.9c-1.2,1.2-1.9,3.1-1.9,5.8v18.1h-9V717.6z"/>
		<path class="st1" d="M350.7,714.3c-1.9-1.6-3.1-3.7-3.9-6.4c-0.8-2.7-1.2-5.4-1.2-8.4c0-2.3,0.4-4.9,1-7.2c0.6-2.3,1.8-4.5,3.1-6
			c2.3-2.7,5.3-4.3,9-4.7c3.7-0.4,6.8-0.2,9.7,0.8c3.3,1.4,5.8,3.7,7.4,6.8c1.6,2.9,2.3,6.4,2.3,10.3c0,2.9-0.4,5.3-1,7.4
			c-0.6,1.9-1.4,3.7-2.3,5.3c-2.1,2.9-4.9,4.7-8.2,5.4c-2.9,0.8-5.8,0.8-8.8,0.2C355,717,352.4,715.8,350.7,714.3z M357.1,690.9
			c-1.9,1.9-2.7,5.1-2.5,9.1c0.2,4.1,1,6.8,2.3,8.4c0.6,0.8,1.6,1.4,2.7,1.8c1.4,0.6,2.7,0.6,4.1,0.2c1.4-0.4,2.5-1.4,3.7-2.9
			c1-1.6,1.6-4.1,1.8-7.8c0-3.1-0.6-5.6-1.6-7.2c-1-1.6-2.1-2.5-3.5-3.1c-1.4-0.4-2.7-0.4-3.9,0
			C358.7,689.7,357.7,690.3,357.1,690.9z"/>
		<path class="st1" d="M400.9,717.6h-9.3l-12.3-35.2h9.7l7,24.9l6.2-21.6c0.8-2.1,2.1-3.1,4.3-3.1h6.8L400.9,717.6z"/>
		<path class="st1" d="M415.3,671.8h4.9c1.2,0,2.3,0.4,3.1,1.4c1,1,1.4,1.9,1.4,3.1v2.7h-9.3V671.8L415.3,671.8z M415.3,682.2h4.9
			c1.2,0,2.3,0.4,3.1,1.4c1,1,1.4,1.9,1.4,3.1v30.8h-9.3V682.2L415.3,682.2z"/>
		<path class="st1" d="M489.7,671.8h4.9c1.2,0,2.3,0.4,3.1,1.4c1,1,1.4,1.9,1.4,3.1v2.7h-9.3L489.7,671.8L489.7,671.8z M489.7,682.2
			h4.9c1.2,0,2.3,0.4,3.1,1.4c1,1,1.4,1.9,1.4,3.1v30.8h-9.3L489.7,682.2L489.7,682.2z"/>
		<path class="st1" d="M455.8,717.6h-4.7c-1.4,0-2.3-0.4-3.3-1.2c-0.8-0.8-1.2-1.9-1.2-3.3V695c0-2.1-0.6-3.7-1.9-4.7
			c-1.4-1-2.7-1.6-4.3-1.6s-2.9,0.6-4.3,1.6c-1.4,1-1.9,2.5-1.9,4.7v22.6h-9.3v-20.6c0-6,1.6-10.1,4.7-12.1
			c3.1-1.9,6.6-3.1,10.5-3.3c3.9,0,7.4,1,10.7,3.1c3.3,1.9,4.9,6.2,4.9,12.3v20.6H455.8z"/>
		<path class="st1" d="M481.3,706.7h6.6c-1,3.7-2.9,6.6-5.6,8.6c-2.7,1.9-6.2,3.1-10.3,3.1c-5.1,0-9-1.6-11.9-4.9
			c-2.9-3.1-4.3-7.8-4.3-13.6c0-5.6,1.4-10.1,4.1-13.2c2.9-3.3,6.8-4.9,11.9-4.9c5.3,0,9.3,1.6,12.3,4.9c1.6,1.9,2.7,4.3,3.5,6.8
			h-9.3c-0.4-1-1-1.6-1.4-1.9c-1.2-1.2-2.7-1.9-4.9-1.9c-1.9,0-3.5,0.6-4.9,1.9c-1.6,1.8-2.3,4.7-2.3,8.8c0,4.1,0.8,7,2.3,8.6
			c1.2,1.4,2.9,2.1,5.3,2.1c1.6,0,2.7-0.4,3.9-1c0.2,0,0.6-0.2,0.8-0.4c0.2-0.2,0.4-0.4,0.8-0.8c0.2-0.2,0.6-0.6,1-1
			C479.3,706.9,480.1,706.7,481.3,706.7z"/>
		<path class="st1" d="M521,716c-1.9,1-3.9,1.6-5.8,1.8c-2.1,0.2-3.9,0.4-5.4,0.4c-3.1,0-6-0.8-8.4-2.5c-2.3-1.8-3.5-4.7-3.5-8.6
			c0-3.7,1.2-6.4,3.3-8c2.1-1.6,4.9-2.7,8.4-3.1c0.4,0,1,0,1.6-0.2c0.6-0.2,1.4-0.2,2.1-0.4c3.9-0.6,5.8-1.8,5.8-3.5
			c0-1.4-0.8-2.1-2.1-2.5c-1.4-0.4-2.7-0.6-3.7-0.6c-1.2,0-2.3,0.2-3.3,0.6c-1,0.4-1.8,1-2.1,1.9h-9.3c0.4-2.7,1.6-5.1,3.7-6.8
			c2.3-1.9,5.8-3.1,10.3-3.1c4.9,0,8.8,0.8,11.1,2.5c2.5,1.8,3.9,4.3,3.9,7.4v12.1c0,3.5-0.6,6.2-1.9,8.4
			C524.1,713.7,522.7,715.2,521,716z M518.9,699.7c-1.2,0.6-2.9,1.2-5.3,1.8l-3.1,0.6c-1.6,0.4-2.7,1-3.5,1.8c-0.6,1-1,1.9-1,2.9
			c0,1.4,0.4,2.3,1.2,3.1c0.8,0.8,1.9,1,3.5,1c2.5,0,4.5-0.8,5.8-2.1c1.4-1.4,2.1-3.3,2.1-5.8v-3.1H518.9z"/>
		<path class="st1" d="M529,671.8h4.9c1.2,0,2.3,0.4,3.1,1.2c1,0.8,1.4,1.9,1.4,3.1v41.3H529V671.8L529,671.8z"/>
		<path class="st1" d="M45.8,789.6v-40.9c0-1.4,0.4-2.5,1.4-3.3c1-1,2.1-1.4,3.3-1.4h13.2c7,0,12.3,1.9,15.6,5.6
			c3.5,3.9,5.3,9.7,5.3,17.3c0,4.1-0.6,7.8-1.9,11.1c-1.4,3.3-3.3,5.8-5.6,7.8c-1.9,1.6-4.1,2.5-6.2,3.1c-2.1,0.6-5.4,1-9.7,1H45.8
			V789.6z M55,781.4h7.6c4.3,0,7.6-1.2,9.5-3.5c1.9-2.1,2.9-5.8,2.9-11.1c0-5.1-1-9-2.7-11.3c-1.8-2.3-4.7-3.5-8.6-3.5H55V781.4z"/>
		<path class="st1" d="M86.9,744.1h4.9c1.2,0,2.3,0.4,3.1,1.4c1,1,1.4,1.9,1.4,3.1v2.7h-9.3V744.1z M86.9,754.4h4.9
			c1.2,0,2.3,0.4,3.1,1.4c1,1,1.4,1.9,1.4,3.1v30.8h-9.3V754.4z"/>
		<path class="st1" d="M96.7,789.6v-17.1c0-3.5,0.6-6.4,1.6-8.8s2.3-4.3,4.1-5.6c1.8-1.4,3.7-2.3,5.8-2.9c2.3-0.6,4.7-1,7-1
			c0.2,0,0.4,0,0.6,0c0.2,0,0.4,0,0.6,0v9.3h-3.1c-2.5,0-4.5,0.6-5.6,1.9c-1.2,1.2-1.9,3.1-1.9,5.8v18.1h-9V789.6z"/>
		<path class="st1" d="M141.2,778.9h6.6c-1,3.7-2.9,6.6-5.6,8.6c-2.7,1.9-6.2,3.1-10.3,3.1c-5.1,0-9-1.6-11.9-4.9
			c-2.9-3.1-4.3-7.8-4.3-13.6c0-5.6,1.4-10.1,4.1-13.2c2.9-3.3,6.8-4.9,11.9-4.9c5.3,0,9.3,1.6,12.3,4.9c2.9,3.3,4.3,7.8,4.3,13.6
			c0,0.4,0,0.6,0,1c0,0.2,0,0.4,0,0.6c0,0.4,0,0.8-0.2,1h-23c0,2.7,0.8,4.9,1.9,6c1.2,1.4,2.9,2.1,5.3,2.1c1.6,0,2.7-0.4,3.9-1
			c0.2,0,0.6-0.2,0.8-0.4c0.2-0.2,0.4-0.4,0.8-0.8c0-0.2,0.4-0.6,1-1C139.5,779.1,140.3,778.9,141.2,778.9z M125.5,768.4h13.6
			c-0.2-2.3-0.8-4.1-1.9-5.3c-1.2-1.2-2.7-1.9-4.9-1.9c-1.9,0-3.5,0.6-4.9,1.9C126,764.3,125.5,766.2,125.5,768.4z"/>
		<path class="st1" d="M174.1,778.9h6.6c-1,3.7-2.9,6.6-5.6,8.6c-2.7,1.9-6.2,3.1-10.3,3.1c-5.1,0-9-1.6-11.9-4.9
			c-2.9-3.1-4.3-7.8-4.3-13.6c0-5.6,1.4-10.1,4.1-13.2c2.9-3.3,6.8-4.9,11.9-4.9c5.3,0,9.3,1.6,12.3,4.9c1.6,1.9,2.7,4.3,3.5,6.8
			H171c-0.4-1-1-1.6-1.4-1.9c-1.2-1.2-2.7-1.9-4.9-1.9c-1.9,0-3.5,0.6-4.9,1.9c-1.6,1.8-2.3,4.7-2.3,8.8c0,4.1,0.8,7,2.3,8.6
			c1.2,1.4,2.9,2.1,5.3,2.1c1.6,0,2.7-0.4,3.9-1c0.2,0,0.6-0.2,0.8-0.4c0.2-0.2,0.4-0.4,0.8-0.8c0.2-0.2,0.6-0.6,1-1
			C172.2,779.1,173,778.9,174.1,778.9z"/>
		<path class="st1" d="M197.1,789.6c-2.9,0.2-6,0.2-9.5-0.2c-3.5-0.2-5.1-2.5-5.1-6.4v-39.1h4.9c1.2,0,2.1,0.4,3.1,1.4
			c1,1,1.4,1.9,1.4,3.1v6h5.5v1.9c0,1.4-0.4,2.3-1.4,3.3c-1,0.8-1.9,1.4-3.1,1.4h-1v19.7c0,1.6,1,2.3,2.7,2.3h2.7v6.6H197.1z"/>
		<path class="st1" d="M202,786.5c-1.9-1.6-3.1-3.7-3.9-6.4c-0.8-2.7-1.2-5.5-1.2-8.4c0-2.3,0.4-4.9,1-7.2c0.6-2.3,1.8-4.5,3.1-6
			c2.3-2.7,5.3-4.3,9-4.7c3.7-0.4,6.8-0.2,9.7,0.8c3.3,1.4,5.8,3.7,7.4,6.8c1.6,2.9,2.3,6.4,2.3,10.3c0,2.9-0.4,5.3-1,7.4
			c-0.6,1.9-1.4,3.7-2.3,5.3c-2.1,2.9-4.9,4.7-8.2,5.5c-2.9,0.8-5.8,0.8-8.8,0.2C206.2,789.2,203.7,788,202,786.5z M208.4,763.1
			c-1.9,1.9-2.7,5.1-2.5,9.1c0.2,4.1,1,6.8,2.3,8.4c0.6,0.8,1.6,1.4,2.7,1.8c1.4,0.6,2.7,0.6,4.1,0.2c1.4-0.4,2.5-1.4,3.7-2.9
			c1-1.6,1.6-4.1,1.8-7.8c0-3.1-0.6-5.6-1.6-7.2s-2.1-2.5-3.5-3.1c-1.4-0.4-2.7-0.4-3.9,0C209.9,762,209,762.5,208.4,763.1z"/>
		<path class="st1" d="M230.2,789.6v-17.1c0-3.5,0.6-6.4,1.6-8.8c1-2.3,2.3-4.3,4.1-5.6c1.8-1.4,3.7-2.3,5.8-2.9c2.3-0.6,4.7-1,7-1
			c0.2,0,0.4,0,0.6,0c0.2,0,0.4,0,0.6,0v9.3h-3.1c-2.5,0-4.5,0.6-5.6,1.9c-1.2,1.2-1.9,3.1-1.9,5.8v18.1h-9V789.6z"/>
		<path class="st1" d="M273.6,788.2c-1.9,1-3.9,1.6-5.8,1.8c-2.1,0.2-3.9,0.4-5.5,0.4c-3.1,0-6-0.8-8.4-2.5
			c-2.3-1.8-3.5-4.7-3.5-8.6c0-3.7,1.2-6.4,3.3-8c2.1-1.6,4.9-2.7,8.4-3.1c0.4,0,1,0,1.6-0.2c0.6-0.2,1.4-0.2,2.1-0.4
			c3.9-0.6,5.8-1.8,5.8-3.5c0-1.4-0.8-2.1-2.1-2.5c-1.4-0.4-2.7-0.6-3.7-0.6c-1.2,0-2.3,0.2-3.3,0.6c-1,0.4-1.8,1-2.1,1.9h-9.1
			c0.4-2.7,1.6-5.1,3.7-6.8c2.3-1.9,5.8-3.1,10.3-3.1c4.9,0,8.8,0.8,11.1,2.5c2.5,1.8,3.9,4.3,3.9,7.4v12.1c0,3.5-0.6,6.2-1.9,8.4
			C276.9,785.9,275.3,787.3,273.6,788.2z M271.5,771.9c-1.2,0.6-2.9,1.2-5.3,1.8l-3.1,0.6c-1.6,0.4-2.7,1-3.5,1.8
			c-0.6,1-1,1.9-1,2.9c0,1.4,0.4,2.3,1.2,3.1c0.8,0.8,1.9,1,3.5,1c2.5,0,4.5-0.8,5.8-2.1c1.4-1.4,2.1-3.3,2.1-5.8v-3.1H271.5z"/>
		<path class="st1" d="M296.4,789.6c-2.9,0.2-6,0.2-9.5-0.2c-3.5-0.2-5.1-2.5-5.1-6.4v-39.1h4.9c1.2,0,2.1,0.4,3.1,1.4
			c1,1,1.4,1.9,1.4,3.1v6h5.5v1.9c0,1.4-0.4,2.3-1.4,3.3c-1,0.8-1.9,1.4-3.1,1.4h-1v19.7c0,1.6,1,2.3,2.7,2.3h2.7v6.6H296.4z"/>
		<path class="st1" d="M321.7,778.9h6.6c-1,3.7-2.9,6.6-5.6,8.6c-2.7,1.9-6.2,3.1-10.3,3.1c-5.1,0-9-1.6-11.9-4.9
			c-2.9-3.1-4.3-7.8-4.3-13.6c0-5.6,1.4-10.1,4.1-13.2c2.9-3.3,6.8-4.9,11.9-4.9c5.3,0,9.3,1.6,12.3,4.9c2.9,3.3,4.3,7.8,4.3,13.6
			c0,0.4,0,0.6,0,1c0,0.2,0,0.4,0,0.6c0,0.4,0,0.8-0.2,1h-23c0,2.7,0.8,4.9,1.9,6c1.2,1.4,2.9,2.1,5.3,2.1c1.6,0,2.7-0.4,3.9-1
			c0.2,0,0.6-0.2,0.8-0.4c0.2-0.2,0.4-0.4,0.8-0.8c0-0.2,0.4-0.6,1-1C319.9,779.1,320.7,778.9,321.7,778.9z M305.9,768.4h13.6
			c-0.2-2.3-0.8-4.1-1.9-5.3c-1.2-1.2-2.7-1.9-4.9-1.9c-1.9,0-3.5,0.6-4.9,1.9C306.5,764.3,305.9,766.2,305.9,768.4z"/>
		<path class="st1" d="M348.9,786.5c-1.9-1.6-3.1-3.7-3.9-6.4c-0.8-2.7-1.2-5.5-1.2-8.4c0-2.3,0.4-4.9,1-7.2c0.6-2.3,1.8-4.5,3.1-6
			c2.3-2.7,5.3-4.3,9-4.7c3.7-0.4,6.8-0.2,9.7,0.8c3.3,1.4,5.8,3.7,7.4,6.8c1.6,2.9,2.3,6.4,2.3,10.3c0,2.9-0.4,5.3-1,7.4
			c-0.6,1.9-1.4,3.7-2.3,5.3c-2.1,2.9-4.9,4.7-8.2,5.5c-2.9,0.8-5.8,0.8-8.8,0.2C353,789.2,350.7,788,348.9,786.5z M355.3,763.1
			c-1.9,1.9-2.7,5.1-2.5,9.1c0.2,4.1,1,6.8,2.3,8.4c0.6,0.8,1.6,1.4,2.7,1.8c1.4,0.6,2.7,0.6,4.1,0.2c1.4-0.4,2.5-1.4,3.7-2.9
			c1-1.6,1.6-4.1,1.8-7.8c0-3.1-0.6-5.6-1.6-7.2c-1-1.6-2.1-2.5-3.5-3.1c-1.4-0.4-2.7-0.4-3.9,0C356.9,762,355.9,762.5,355.3,763.1z
			"/>
		<path class="st1" d="M376.8,789.6v-36.4c0-3.1,0.8-5.6,2.5-7.2c1.6-1.6,4.3-2.3,7.8-2.3c1,0,1.6,0,2.1,0.2c1,0,1.8,0,2.3,0.2v7.4
			h-2.3c-1.2,0-2.1,0.2-2.7,0.6c-0.4,0.4-0.6,1-0.6,2.1v2.3h5.6v1.9c0,1.4-0.4,2.3-1.4,3.3c-1,0.8-1.9,1.2-3.1,1.2h-1.4v26.7H376.8
			L376.8,789.6z"/>
		<path class="st1" d="M407.3,789.6v-40.9c0-1.4,0.4-2.5,1.4-3.3c1-1,2.1-1.4,3.3-1.4h4.7V761h18.9v-16.9h9.5v45.7h-9.5v-20.2h-18.9
			v20.2h-9.3V789.6z"/>
		<path class="st1" d="M470.2,778.9h6.6c-1,3.7-2.9,6.6-5.6,8.6c-2.7,1.9-6.2,3.1-10.3,3.1c-5.1,0-9-1.6-11.9-4.9
			c-2.9-3.1-4.3-7.8-4.3-13.6c0-5.6,1.4-10.1,4.1-13.2c2.9-3.3,6.8-4.9,11.9-4.9c5.3,0,9.3,1.6,12.3,4.9c2.9,3.3,4.3,7.8,4.3,13.6
			c0,0.4,0,0.6,0,1c0,0.2,0,0.4,0,0.6c0,0.4,0,0.8-0.2,1h-23c0,2.7,0.8,4.9,1.9,6c1.2,1.4,2.9,2.1,5.3,2.1c1.6,0,2.7-0.4,3.9-1
			c0.2,0,0.6-0.2,0.8-0.4c0.2-0.2,0.4-0.4,0.8-0.8c0-0.2,0.4-0.6,1-1C468.4,779.1,469.2,778.9,470.2,778.9z M454.4,768.4h13.6
			c-0.2-2.3-0.8-4.1-1.9-5.3c-1.2-1.2-2.7-1.9-4.9-1.9c-1.9,0-3.5,0.6-4.9,1.9C455,764.3,454.4,766.2,454.4,768.4z"/>
		<path class="st1" d="M501.9,788.2c-1.9,1-3.9,1.6-5.8,1.8c-2.1,0.2-3.9,0.4-5.5,0.4c-3.1,0-6-0.8-8.4-2.5
			c-2.3-1.8-3.5-4.7-3.5-8.6c0-3.7,1.2-6.4,3.3-8c2.1-1.6,4.9-2.7,8.4-3.1c0.4,0,1,0,1.6-0.2c0.6-0.2,1.4-0.2,2.1-0.4
			c3.9-0.6,5.8-1.8,5.8-3.5c0-1.4-0.8-2.1-2.1-2.5c-1.4-0.4-2.7-0.6-3.7-0.6c-1.2,0-2.3,0.2-3.3,0.6c-1,0.4-1.8,1-2.1,1.9h-9
			c0.4-2.7,1.6-5.1,3.7-6.8c2.3-1.9,5.8-3.1,10.3-3.1c4.9,0,8.8,0.8,11.1,2.5c2.5,1.8,3.9,4.3,3.9,7.4v12.1c0,3.5-0.6,6.2-1.9,8.4
			C505.2,785.9,503.7,787.3,501.9,788.2z M499.8,771.9c-1.2,0.6-2.9,1.2-5.3,1.8l-3.1,0.6c-1.6,0.4-2.7,1-3.5,1.8
			c-0.6,1-1,1.9-1,2.9c0,1.4,0.4,2.3,1.2,3.1c0.8,0.8,1.9,1,3.5,1c2.5,0,4.5-0.8,5.8-2.1c1.4-1.4,2.1-3.3,2.1-5.8v-3.1H499.8z"/>
		<path class="st1" d="M509.3,744.1h4.9c1.2,0,2.3,0.4,3.1,1.2c1,0.8,1.4,1.9,1.4,3.1v41.3h-9.3V744.1L509.3,744.1z"/>
		<path class="st1" d="M535.2,789.6c-2.9,0.2-6,0.2-9.5-0.2c-3.5-0.2-5.1-2.5-5.1-6.4v-39.1h4.9c1.2,0,2.1,0.4,3.1,1.4
			c1,1,1.4,1.9,1.4,3.1v6h5.5v1.9c0,1.4-0.4,2.3-1.4,3.3c-1,0.8-1.9,1.4-3.1,1.4h-1v19.7c0,1.6,1,2.3,2.7,2.3h2.7v6.6H535.2z"/>
		<path class="st1" d="M558.6,764.3c-1.4-1.9-3.1-2.7-5.5-2.7c-2.5,0-4.5,1-5.6,2.7c-1.2,1.8-1.9,4.3-1.9,7.4v18.1h-9v-45.7h4.5
			c1.2,0,2.3,0.4,3.1,1.4c1,1,1.4,1.9,1.4,3.1V759c1.6-2.7,3.9-4.3,6.8-5.1c2.9-0.8,5.6-0.6,8.4,0.6c2.5,1,4.5,2.7,6.2,5.1
			c1.8,2.3,2.5,5.5,2.5,9.5v20.6h-9v-18.3c0-1.4-0.2-2.5-0.4-3.7C559.9,766.6,559.3,765.5,558.6,764.3z"/>
	</g>
</g>
</svg>
