<?xml version="1.0" encoding="utf-8"?>
<!-- Generator: Adobe Illustrator 16.0.0, SVG Export Plug-In . SVG Version: 6.00 Build 0)  -->
<!DOCTYPE svg PUBLIC "-//W3C//DTD SVG 1.1//EN" "http://www.w3.org/Graphics/SVG/1.1/DTD/svg11.dtd">
<svg version="1.1" id="Layer_1" xmlns="http://www.w3.org/2000/svg" xmlns:xlink="http://www.w3.org/1999/xlink" x="0px" y="0px"
	 width="32.7px" height="32.7px" viewBox="0 0 32.7 32.7" style="enable-background:new 0 0 32.7 32.7;" xml:space="preserve">
<style type="text/css">
<![CDATA[
	.st0{fill:#FFFFFF;}
]]>
</style>
<g>
	<g>
		<path class="st0" d="M0,5.3c-0.1,6.6,3,13.5,8.4,18.9l0.1,0.1c5.3,5.3,12.1,8.4,18.7,8.4l0.2,0c0.5-0.4,0.9-0.8,1.4-1.2
			c1.7-1.7,3-3.7,3.9-6c0.1-0.3-0.1-1.1-0.3-1.3c-2.6-1.2-4.7-1.9-8.3-2.7c-0.5,0-1,0.1-1.1,0.2l-1.7,2.8c-0.8,1.3-2.9,1.4-4.5,0.3
			c-1.6-1.2-3.2-2.5-4.7-4c-1.5-1.5-2.9-3.1-4.1-4.8c-0.7-0.9-0.9-2-0.7-2.9c0.1-0.7,0.5-1.2,1-1.6l2.9-1.8c0.1-0.1,0.2-0.8,0.1-1
			c-0.8-3-1.9-6.1-2.7-8.5C8.4,0.2,7.8,0,7.4,0C7.3,0,7.2,0,7.2,0C5,0.9,2.9,2.2,1.2,3.9C0.8,4.3,0.4,4.8,0,5.3L0,5.3z"/>
	</g>
</g>
</svg>
