<?xml version="1.0" encoding="utf-8"?>
<!-- Generator: Adobe Illustrator 16.0.0, SVG Export Plug-In . SVG Version: 6.00 Build 0)  -->
<!DOCTYPE svg PUBLIC "-//W3C//DTD SVG 1.1//EN" "http://www.w3.org/Graphics/SVG/1.1/DTD/svg11.dtd">
<svg version="1.1" id="Layer_1" xmlns="http://www.w3.org/2000/svg" xmlns:xlink="http://www.w3.org/1999/xlink" x="0px" y="0px"
	 width="638.8px" height="284.7px" viewBox="0 16.8 638.8 284.7" style="enable-background:new 0 16.8 638.8 284.7;"
	 xml:space="preserve">
<style type="text/css">
<![CDATA[
	.st0{opacity:0.85;}
	.st1{clip-path:url(#SVGID_2_);}
	.st2{clip-path:url(#SVGID_7_);}
	.st3{clip-path:url(#SVGID_9_);}
	.st4{fill:#FFFFFF;}
	.st5{clip-path:url(#SVGID_4_);fill:url(#SVGID_5_);}
	.st6{clip-path:url(#SVGID_11_);}
	.st7{clip-path:url(#SVGID_13_);fill:#ED5C72;}
]]>
</style>
<g>
	<defs>
		<rect id="SVGID_1_" x="0" width="638.8" height="301.2"/>
	</defs>
	<clipPath id="SVGID_2_">
		<use xlink:href="#SVGID_1_"  style="overflow:visible;"/>
	</clipPath>
	<g class="st1">
		<g>
			<defs>
				<path id="SVGID_3_" d="M0,36.2v265h638.8V45.1c-33.3,11.8-132.5,37.1-293-5.2c-65.7-17.3-127.3-23.1-180.6-23.1
					C88.1,16.8,28.6,29,0,36.2"/>
			</defs>
			<clipPath id="SVGID_4_">
				<use xlink:href="#SVGID_3_"  style="overflow:visible;"/>
			</clipPath>
			
				<linearGradient id="SVGID_5_" gradientUnits="userSpaceOnUse" x1="-7.2537" y1="933.3594" x2="-5.7619" y2="933.3594" gradientTransform="matrix(449.0674 0 0 449.0674 3238.9189 -418982.7813)">
				<stop  offset="0" style="stop-color:#67CAF2"/>
				<stop  offset="0.2004" style="stop-color:#67CAF2"/>
				<stop  offset="1" style="stop-color:#2AA9E1"/>
			</linearGradient>
			<rect x="0" y="16.8" class="st5" width="638.8" height="284.5"/>
		</g>
	</g>
	<g class="st1">
		<g>
			<defs>
				<rect id="SVGID_6_" x="0" y="2.8" width="638.8" height="405.1"/>
			</defs>
			<clipPath id="SVGID_7_">
				<use xlink:href="#SVGID_6_"  style="overflow:visible;"/>
			</clipPath>
			<g class="st2">
				<g class="st0">
					<defs>
						<rect id="SVGID_8_" x="-46.5" y="27.4" class="st0" width="759" height="472.1"/>
					</defs>
					<clipPath id="SVGID_9_">
						<use xlink:href="#SVGID_8_"  style="overflow:visible;"/>
					</clipPath>
					<g class="st3">
						<g>
							<defs>
								<rect id="SVGID_10_" x="-46.5" y="27.4" width="759" height="472.1"/>
							</defs>
							<clipPath id="SVGID_11_">
								<use xlink:href="#SVGID_10_"  style="overflow:visible;"/>
							</clipPath>
							<g transform="matrix(1 0 0 1 -3.368252e-006 -4.674280e-008)" class="st6">
							</g>
						</g>
					</g>
				</g>
				<g>
					<defs>
						<rect id="SVGID_12_" x="0" y="2.8" width="638.8" height="405.1"/>
					</defs>
					<clipPath id="SVGID_13_">
						<use xlink:href="#SVGID_12_"  style="overflow:visible;"/>
					</clipPath>
					<path class="st7" d="M-28.6,90c0,0,163.3-66.5,374.7-25.1c211.4,41.4,314.4-19.6,314.4-19.6l33.9,393.2l-689.3,43L-28.6,90z"/>
				</g>
			</g>
			<g class="st2">
				<path class="st4" d="M310.9,130.2c-0.2-4.8-0.5-10.6-0.5-14.9h-0.2c-1.1,4-2.6,8.4-4.3,13.1l-6.1,16.7h-3.3l-5.5-16.4
					c-1.7-4.9-3-9.3-4-13.4h-0.1c-0.1,4.3-0.4,10.1-0.7,15.2l-0.9,14.7h-4.3l2.4-34.4h5.7l5.8,16.6c1.4,4.3,2.6,8.1,3.5,11.6h0.2
					c0.8-3.5,2.1-7.3,3.6-11.6l6.2-16.6h5.7l2.1,34.4H312L310.9,130.2z"/>
				<path class="st4" d="M322.8,133.7c0.1,6.1,4,8.6,8.5,8.6c3.2,0,5.2-0.5,6.8-1.3l0.8,3.2c-1.6,0.7-4.3,1.5-8.2,1.5
					c-7.6,0-12.2-5-12.2-12.5c0-7.4,4.4-13.4,11.6-13.4c8.1,0,10.3,7.1,10.3,11.6c0,0.9-0.1,1.7-0.2,2.1L322.8,133.7L322.8,133.7z
					 M336,130.5c0.1-2.9-1.1-7.3-6.2-7.3c-4.6,0-6.5,4.2-6.9,7.3H336z"/>
				<path class="st4" d="M364.8,109v29.9c0,2.2,0.1,4.7,0.2,6.4h-4l-0.2-4.3h-0.1c-1.4,2.7-4.4,4.9-8.4,4.9c-6,0-10.6-5.1-10.6-12.5
					c-0.1-8.2,5.1-13.3,11.1-13.3c3.8,0,6.3,1.8,7.4,3.8h0.1v-14.7L364.8,109L364.8,109z M360.2,130.6c0-0.5-0.1-1.3-0.2-1.9
					c-0.7-2.9-3.1-5.2-6.5-5.2c-4.6,0-7.4,4.1-7.4,9.6c0,5,2.4,9.1,7.3,9.1c3,0,5.8-2,6.6-5.4c0.2-0.6,0.2-1.2,0.2-2V130.6
					L360.2,130.6z"/>
				<path class="st4" d="M374.7,113.6c0.1,1.5-1.1,2.7-2.9,2.7c-1.6,0-2.7-1.2-2.7-2.7c0-1.6,1.1-2.8,2.8-2.8
					C373.7,110.8,374.7,112.1,374.7,113.6z M369.7,145.3v-24.8h4.5v24.8H369.7z"/>
				<path class="st4" d="M396.8,144.4c-1.1,0.6-3.8,1.4-7.1,1.4c-7.4,0-12.3-5.1-12.3-12.6c0-7.6,5.2-13.1,13.3-13.1
					c2.7,0,5,0.7,6.2,1.3l-1,3.5c-1.1-0.6-2.7-1.1-5.2-1.1c-5.7,0-8.7,4.2-8.7,9.3c0,5.7,3.6,9.3,8.6,9.3c2.6,0,4.3-0.7,5.5-1.2
					L396.8,144.4z"/>
				<path class="st4" d="M413.2,145.3l-0.4-3.1h-0.2c-1.4,2-4,3.6-7.6,3.6c-5,0-7.6-3.5-7.6-7.1c0-6,5.3-9.3,14.9-9.2V129
					c0-2.1-0.5-5.7-5.6-5.7c-2.3,0-4.7,0.7-6.5,1.8l-1-3c2.1-1.3,5-2.2,8.1-2.2c7.6,0,9.4,5.2,9.4,10.1v9.3c0,2.1,0.1,4.3,0.4,5.9
					H413.2z M412.6,132.7c-4.9-0.1-10.5,0.8-10.5,5.5c0,2.9,2,4.3,4.3,4.3c3.2,0,5.2-2.1,6-4.1c0.2-0.5,0.2-1,0.2-1.4V132.7z"/>
				<path class="st4" d="M421.6,109h4.5v36.3h-4.5V109z"/>
				<path class="st4" d="M446.2,114.7h-10.5v-3.8h25.5v3.8h-10.6v30.7h-4.5V114.7L446.2,114.7z"/>
				<path class="st4" d="M478.2,132.7c0,9.1-6.3,13.1-12.3,13.1c-6.7,0-11.9-4.9-11.9-12.7c0-8.3,5.4-13.1,12.2-13.1
					C473.4,120.1,478.2,125.2,478.2,132.7z M458.6,133c0,5.4,3.1,9.5,7.5,9.5c4.3,0,7.5-4,7.5-9.6c0-4.2-2.1-9.5-7.4-9.5
					C460.9,123.4,458.6,128.3,458.6,133z"/>
				<path class="st4" d="M502,138.6c0,2.6,0.1,4.8,0.2,6.8h-3.9l-0.2-4H498c-1.1,2-3.8,4.6-8.2,4.6c-3.9,0-8.5-2.1-8.5-10.9v-14.4
					h4.5v13.7c0,4.7,1.4,7.9,5.5,7.9c3,0,5.1-2.1,5.9-4.1c0.2-0.7,0.4-1.5,0.4-2.3v-15.2h4.5L502,138.6L502,138.6z"/>
				<path class="st4" d="M507,128.3c0-2.9-0.1-5.4-0.2-7.7h4l0.2,4.9h0.2c1.1-3.3,3.8-5.4,6.8-5.4c0.5,0,0.8,0.1,1.3,0.2v4.3
					c-0.5-0.1-0.9-0.2-1.5-0.2c-3.2,0-5.4,2.4-6,5.8c-0.1,0.6-0.2,1.3-0.2,2.1v13.2H507V128.3L507,128.3z"/>
				<path class="st4" d="M526.2,113.6c0.1,1.5-1.1,2.7-2.9,2.7c-1.6,0-2.7-1.2-2.7-2.7c0-1.6,1.1-2.8,2.8-2.8
					C525.1,110.8,526.2,112.1,526.2,113.6z M521.2,145.3v-24.8h4.5v24.8H521.2z"/>
				<path class="st4" d="M530,140.7c1.3,0.8,3.6,1.8,5.9,1.8c3.3,0,4.8-1.7,4.8-3.6c0-2.1-1.3-3.3-4.6-4.6c-4.5-1.6-6.5-4-6.5-7
					c0-4,3.2-7.3,8.5-7.3c2.5,0,4.7,0.7,6.1,1.5l-1.1,3.3c-1-0.6-2.7-1.4-5.1-1.4c-2.7,0-4.1,1.5-4.1,3.3c0,2.1,1.5,3,4.7,4.2
					c4.3,1.7,6.5,3.8,6.5,7.4c0,4.3-3.3,7.4-9.3,7.4c-2.7,0-5.2-0.7-6.9-1.7L530,140.7z"/>
				<path class="st4" d="M548.4,127.3c0-2.6-0.1-4.6-0.2-6.7h4l0.2,3.9h0.2c1.4-2.4,3.6-4.6,7.7-4.6c3.3,0,5.9,2.1,7,4.9h0.1
					c0.8-1.4,1.7-2.4,2.7-3.2c1.5-1.1,3.1-1.7,5.5-1.7c3.3,0,8.1,2.1,8.1,10.7v14.6h-4.4v-14c0-4.8-1.7-7.6-5.4-7.6
					c-2.6,0-4.6,1.9-5.3,4.1c-0.2,0.6-0.4,1.4-0.4,2.3v15.3h-4.4v-14.8c0-3.9-1.7-6.8-5.2-6.8c-2.8,0-4.9,2.3-5.5,4.5
					c-0.2,0.7-0.4,1.4-0.4,2.2v14.9h-4.4v-18.1H548.4z"/>
			</g>
			<g class="st2">
				<path class="st4" d="M394.5,190c-2,0.7-5.9,1.9-10.6,1.9c-5.2,0-9.5-1.3-12.9-4.6c-3-2.9-4.8-7.4-4.8-12.8
					c0.1-10.3,7.1-17.8,18.7-17.8c4,0,7.1,0.8,8.6,1.6l-1.1,3.6c-1.8-0.8-4.1-1.5-7.6-1.5c-8.4,0-13.8,5.2-13.8,13.8
					c0,8.7,5.2,13.9,13.3,13.9c2.9,0,4.9-0.4,5.9-0.9V177h-7v-3.6h11.3L394.5,190L394.5,190z"/>
				<path class="st4" d="M419.4,184.8c0,2.6,0.1,4.8,0.2,6.8h-4l-0.2-4h-0.1c-1.1,2-3.8,4.6-8.2,4.6c-3.9,0-8.5-2.1-8.5-10.9v-14.4
					h4.5v13.7c0,4.7,1.4,7.9,5.5,7.9c3,0,5.1-2.1,5.9-4.1c0.2-0.7,0.4-1.5,0.4-2.3v-15.2h4.5L419.4,184.8L419.4,184.8z"/>
				<path class="st4" d="M429.3,159.9c0.1,1.5-1.1,2.7-2.9,2.7c-1.6,0-2.7-1.2-2.7-2.7c0-1.6,1.1-2.8,2.8-2.8
					C428.3,157.1,429.3,158.3,429.3,159.9z M424.3,191.5v-24.8h4.5v24.8H424.3z"/>
				<path class="st4" d="M455.1,155.3v29.9c0,2.2,0.1,4.7,0.2,6.4h-4l-0.2-4.3H451c-1.4,2.7-4.4,4.9-8.4,4.9
					c-6,0-10.6-5.1-10.6-12.5c-0.1-8.2,5.1-13.3,11.1-13.3c3.8,0,6.3,1.8,7.4,3.8h0.1v-14.7H455.1z M450.6,176.9
					c0-0.5-0.1-1.3-0.2-1.9c-0.7-2.9-3.1-5.2-6.5-5.2c-4.6,0-7.4,4.1-7.4,9.6c0,5,2.4,9.1,7.3,9.1c3,0,5.8-2,6.6-5.4
					c0.2-0.6,0.2-1.2,0.2-2V176.9L450.6,176.9z"/>
				<path class="st4" d="M462.6,180c0.1,6.1,3.9,8.6,8.5,8.6c3.2,0,5.2-0.5,6.8-1.3l0.8,3.2c-1.6,0.7-4.3,1.5-8.2,1.5
					c-7.6,0-12.2-5-12.2-12.5c0-7.4,4.4-13.4,11.6-13.4c8.1,0,10.3,7.1,10.3,11.6c0,0.9-0.1,1.7-0.2,2.1L462.6,180L462.6,180z
					 M475.8,176.8c0.1-2.9-1.1-7.3-6.2-7.3c-4.6,0-6.5,4.2-6.9,7.3H475.8z"/>
				<path class="st4" d="M490,191.5v-2.7l3.5-3.4c8.5-8.1,12.3-12.4,12.4-17.4c0-3.3-1.7-6.5-6.6-6.5c-3,0-5.5,1.5-7.1,2.8l-1.4-3.2
					c2.3-2,5.5-3.3,9.4-3.3c7.1,0,10.2,4.9,10.2,9.6c0,6.2-4.5,11.1-11.5,17.9l-2.7,2.4v0.1h14.9v3.7H490z"/>
				<path class="st4" d="M535.8,174.6c0,11.3-4.2,17.5-11.5,17.5c-6.5,0-10.9-6.1-11-17.1c0-11.2,4.8-17.2,11.5-17.2
					C531.9,157.8,535.8,164,535.8,174.6z M517.8,175.1c0,8.7,2.7,13.5,6.8,13.5c4.6,0,6.8-5.4,6.8-13.8c0-8.2-2.1-13.5-6.8-13.5
					C520.6,161.2,517.8,166.1,517.8,175.1z"/>
				<path class="st4" d="M546.9,162.5L546.9,162.5l-5.8,3.1l-0.8-3.4l7.3-3.9h3.8v33.2h-4.4V162.5z"/>
				<path class="st4" d="M574.8,191.5v-9h-15.4v-3l14.8-21.2h4.9V179h4.6v3.5h-4.6v9H574.8L574.8,191.5z M574.8,179v-11.1
					c0-1.7,0.1-3.5,0.2-5.2h-0.2c-1,2-1.8,3.3-2.7,4.9l-8.1,11.3v0.1H574.8z"/>
			</g>
		</g>
	</g>
</g>
</svg>
