<?xml version="1.0" encoding="utf-8"?>
<!-- Generator: Adobe Illustrator 16.0.0, SVG Export Plug-In . SVG Version: 6.00 Build 0)  -->
<!DOCTYPE svg PUBLIC "-//W3C//DTD SVG 1.1//EN" "http://www.w3.org/Graphics/SVG/1.1/DTD/svg11.dtd">
<svg version="1.1" id="Layer_1" xmlns="http://www.w3.org/2000/svg" xmlns:xlink="http://www.w3.org/1999/xlink" x="0px" y="0px"
	 width="33px" height="31.2px" viewBox="0 0 33 31.2" style="enable-background:new 0 0 33 31.2;" xml:space="preserve">
<style type="text/css">
<![CDATA[
	.st0{fill:#FFFFFF;}
]]>
</style>
<g>
	<path class="st0" d="M5.2,20.6c0.5,1.4,1.2,2.6,2.2,3.7s2.3,2,3.8,2.7c1.5,0.7,3.4,1.1,5.5,1.1c3.3,0,5.9-0.7,7.7-2.1
		c1.9-1.4,3.2-3.2,3.9-5.5h4.5c-1,3.4-2.7,5.9-5.3,7.8c-2.6,1.8-6.2,2.7-10.9,2.7c-2.9,0-5.4-0.4-7.6-1.2C7,29.1,5.3,28,3.9,26.6
		c-1.3-1.4-2.3-3.1-3-5c-0.6-1.9-1-3.9-1-6c0-1.9,0.3-3.9,1-5.7c0.6-1.9,1.6-3.5,3-5C5.3,3.4,7,2.2,9.1,1.3C11.3,0.4,13.8,0,16.7,0
		c3,0,5.5,0.5,7.6,1.4c2.1,1,3.8,2.2,5.1,3.7c1.3,1.5,2.3,3.3,2.8,5.3c0.6,2,0.8,4,0.7,6.1H4.5C4.5,17.9,4.7,19.2,5.2,20.6z
		 M27.5,9.6c-0.5-1.3-1.3-2.4-2.3-3.3c-1-1-2.2-1.8-3.7-2.3C20.1,3.3,18.5,3,16.7,3c-1.9,0-3.5,0.3-4.9,0.9
		c-1.4,0.6-2.7,1.4-3.7,2.3c-1,1-1.8,2.1-2.4,3.4c-0.6,1.3-1,2.6-1.2,3.9h23.9C28.4,12.2,28.1,10.9,27.5,9.6z"/>
</g>
</svg>
